<svg width="547" height="547" viewBox="0 0 547 547" fill="none" xmlns="http://www.w3.org/2000/svg">
<path d="M359.363 327.773C372.24 320.892 384.325 314.43 396.414 307.977C386.253 307.792 366.424 318.627 359.363 327.773ZM409.747 143.982C404.956 141.294 399.932 139.409 394.344 139.456C388.389 139.504 387.103 140.625 386.248 146.66C386.02 148.246 385.944 149.855 385.797 151.503C385.925 153.06 386.025 154.66 386.191 156.261C387.435 168.502 389.111 169.033 401.642 169.204C407.587 169.285 410.022 166.749 410.454 160.857C410.763 156.669 410.359 152.448 411.922 148.388C412.696 146.379 411.494 144.964 409.747 143.982ZM172.452 159.124C169.309 158.559 166.066 158.544 162.866 158.293C162.861 158.445 162.856 158.606 162.852 158.763C160.245 158.763 157.614 158.563 155.031 158.806C149.889 159.295 148.797 160.396 148.032 165.363C147.695 167.547 147.781 169.826 147.201 171.93C145.482 178.217 148.545 182.367 153.118 185.866C159.015 190.372 170.601 188.891 173.583 183.022C176.232 177.808 177.652 172.087 178.079 166.256C178.407 161.887 176.754 159.907 172.452 159.124ZM272.437 257.983C266.791 258.476 261.435 255.917 256.164 256.515C254.393 256.515 252.988 256.506 251.592 256.52C250.989 256.525 250.386 256.549 249.792 256.625C245.5 257.18 245.058 257.641 245.661 261.924C246.991 271.297 250.319 280.086 253.767 288.837C254.488 290.679 255.704 291.866 257.689 292.08C261.468 292.484 265.234 292.863 269.037 292.07C270.552 291.757 271.772 291.306 272.033 289.673C273.572 279.981 274.407 270.228 274.35 260.414C274.341 259.26 274.108 257.835 272.437 257.983ZM315.342 256.796C308.22 257.665 300.983 257.517 294.013 259.853C290.983 260.87 289.692 262.071 290.133 265.333C291.188 273.063 292.726 280.732 293.12 288.547C293.234 290.698 294.583 291.862 296.453 292.265C300.784 293.205 305.2 293.818 309.511 292.346C313.068 291.135 315.632 288.979 316.515 284.896C318.172 277.251 319.421 269.559 320.233 261.791C320.712 257.218 320.062 256.629 315.342 256.796ZM298.704 97.4723C292.75 103.033 285.703 106.195 277.503 106.238C271.648 106.266 265.955 104.87 260.333 103.351C259.009 102.995 257.731 102.244 256.611 101.432C253.529 99.2007 253.339 97.2634 256.715 95.6537C261.321 93.46 261.658 89.6899 261.606 85.6396C261.568 82.634 258.795 80.9341 257.404 77.6863C252.01 81.1763 247.014 82.8239 242.072 78.2513C239.08 75.4879 237.855 70.8535 239.208 67.8432C240.851 64.168 244.199 63.0332 251.34 63.7407C252.665 61.8841 251.772 59.8898 251.687 57.943C251.445 52.6962 253.088 50.1416 258.064 48.3943C262.769 46.7371 267.66 46.8416 272.342 48.0429C282.156 50.5642 291.344 49.928 300.152 44.5197C303.956 42.1883 305.029 42.6584 305.432 47.3306C306.467 59.5194 307.906 71.9029 298.657 82.1924C296.833 84.2199 296.577 91.8931 298.462 92.7953C302.156 94.5521 300.309 95.9766 298.704 97.4723Z" fill="#CC6E53"/>
<mask id="mask0_709_137" style="mask-type:luminance" maskUnits="userSpaceOnUse" x="131" y="65" width="297" height="406">
<path d="M131.279 65.6399H427.049V470.42H131.279V65.6399Z" fill="white"/>
</mask>
<g mask="url(#mask0_709_137)">
<path d="M262.948 72.5724C262.725 72.4585 262.578 71.8744 262.663 71.58C263.1 69.9656 265.132 69.4956 268.466 70.1936C268.385 70.5544 268.423 71.0767 268.195 71.2572C266.647 72.468 265.061 73.7073 262.948 72.5724ZM293.114 68.2373C293.223 66.1243 295.868 66.6513 297.596 66.6846C298.19 66.6988 298.783 66.8793 299.367 67.0217C300.189 67.2211 300.92 67.6532 300.863 68.5696C300.806 69.4956 299.97 69.8232 299.182 70.0131C298.603 70.1461 297.995 70.1746 297.416 70.2505C295.773 69.8374 293 70.4167 293.114 68.2373ZM157.546 191.654C157.674 189.323 159.061 188.611 161.112 188.478C162.513 188.387 163.899 188.06 165.3 188.026C172.313 187.879 175.376 183.136 176.848 177.357C177.892 173.226 178.842 168.962 177.285 164.447C176.511 162.182 175.518 161.052 173.51 160.43C170.238 159.404 166.929 158.73 163.462 158.682C159.388 158.63 159.374 158.492 159.047 154.238C158.871 152.035 158.633 149.827 158.638 147.623C158.719 128.54 158.823 109.452 158.985 90.3689C159.013 87.3918 158.909 84.3576 159.873 81.6938C172.118 84.1534 184.16 86.4896 196.159 89.0109C211.092 92.1495 225.926 95.6965 240.527 100.179C248.385 102.596 256.338 104.704 264.235 107.016C269.705 108.612 274.752 110.938 278.537 115.449C279.14 116.166 279.833 117.021 281.571 117.135C282.862 112.22 287.126 110.169 291.39 107.857C300.607 102.852 310.255 98.8778 320.093 95.4021C331.655 91.3186 342.871 86.4279 354.262 81.9265C368.839 76.1669 384.01 72.1926 398.943 67.5108C403.411 66.1148 405.03 67.2781 406.479 71.8412C407.101 73.788 407.167 75.787 407.139 77.805C406.968 87.8334 406.787 97.8664 406.645 107.895C406.507 117.529 406.445 127.168 406.298 136.802C406.213 142.291 406.013 142.415 400.861 141.128C398.326 140.492 395.809 139.708 393.169 139.822C389.109 139.993 387.709 141.555 386.821 145.572C385.862 149.917 386.474 154.285 386.427 158.597C386.351 165.14 390.676 168.416 397.533 168.164C398.131 168.141 398.744 167.956 399.328 168.013C401.099 168.179 403.126 168.017 403.682 170.353C404.233 172.671 403.055 173.981 401.108 175.178C389.195 182.476 376.08 187.015 363.117 191.849C340.744 200.206 318.579 209.095 296.077 217.1C291.533 218.714 287.634 218.999 283.442 216.668C278.271 213.795 273.238 213.15 268.598 217.917C266.628 219.949 264.04 219.075 261.747 218.591C253.903 216.948 246.253 214.527 238.39 212.888C214.221 207.836 190.11 202.494 165.979 197.257C164.217 196.877 162.48 196.36 160.718 195.98C158.349 195.472 157.413 194.024 157.546 191.654ZM254.453 390.222C255.868 384.258 255.802 384.092 250.085 380.811C252.412 378.199 251.894 375.402 250.085 372.829C252.022 371.428 253.922 371.841 255.631 372.003C257.877 372.202 259.107 373.147 258.171 376.053C256.638 380.801 257.549 381.732 262.468 382.924C265.579 383.683 268.993 383.797 270.384 387.914C271.139 390.146 273.76 390.241 276.158 389.799C278.907 389.286 278.94 389.457 281.276 392.097C276.509 393.261 262.198 392.259 254.453 390.222ZM246.614 338.366C246.533 336.543 248.243 337.041 249.278 337.103C257.146 337.597 265.009 338.162 272.877 338.703C264.99 342.573 257.046 344.961 248.376 342.231C246.087 341.514 246.676 339.724 246.614 338.366ZM425.059 427.914C421.83 425.587 418.511 425.881 414.897 427.073C384.974 436.949 355.007 446.726 325.065 456.56C319.87 458.264 319.761 458.231 317.411 453.288C312.61 443.212 315.003 433.274 318.037 423.388C319.039 420.136 321.428 418.654 324.941 417.619C356.522 408.298 388.003 398.65 419.503 389.082C420.647 388.731 421.82 388.356 422.841 387.757C424.133 387.007 424.413 385.616 423.083 384.889C416.939 381.537 410.686 378.384 404.484 375.132C402.001 373.836 399.959 374.809 397.728 376.02C388.169 381.186 379.186 387.259 370.059 393.118C367.714 394.623 365.525 396.452 362.476 396.471C349.01 396.57 335.544 396.594 322.116 395.331C320.345 395.16 319.457 394.837 319.158 392.605C318.712 389.334 318.669 385.82 316.38 382.957C315.359 381.675 316.209 380.293 317.036 379.087C318.166 377.42 318.593 374.928 316.964 374.215C313.256 372.587 311.884 368.413 308.066 367.041C305.535 366.124 305.303 363.855 307.354 362.112C308.413 361.21 309.685 360.559 310.811 359.733C313.845 357.501 310.018 354.012 311.85 352.169C313.792 350.218 316.988 349.259 316.105 345.75C315.44 343.1 316.884 342.492 318.783 342.203C320.155 341.998 321.594 342.093 322.995 342.179C331.418 342.701 339.851 343.143 348.26 343.855C353.45 344.301 358.44 344.947 360.406 338.361C360.663 337.502 361.712 336.87 362.424 336.158C366.593 332.003 371.484 328.869 376.621 326.068C387.58 320.085 399.066 315.313 410.842 311.211C412.176 310.741 413.615 310.479 414.432 309.202C415.306 307.825 415.462 306.51 413.477 305.969C412.713 305.769 411.887 305.774 411.084 305.707C389.86 303.846 368.625 302.127 347.339 301.111C323.037 299.953 298.707 300 274.391 299.397C254.705 298.913 235.005 298.424 215.38 296.515C209.217 295.917 203.091 295.546 196.895 297.521C176.8 303.936 156.929 310.95 137.233 318.476C136.112 318.903 134.982 319.387 133.995 320.047C132.314 321.173 131.815 322.891 132.243 324.81C132.651 326.638 134.09 327.326 135.775 327.597C136.563 327.725 137.375 327.73 138.173 327.82C146.701 328.727 155.229 329.639 163.885 330.565C163.752 332.697 161.582 334.159 162.779 336.381C163.686 338.057 166.629 337.744 166.634 340.598C161.663 340.593 157.223 341.362 155.257 346.675C154.802 347.91 153.197 347.758 152.171 348.328C149.74 349.676 148.596 351.528 150.144 354.263C150.618 355.099 151.54 355.745 151.207 356.913C150.053 360.982 152.323 362.373 155.832 362.82C156.668 362.924 157.361 363.285 157.408 364.277C157.47 365.479 156.753 366.186 155.699 366.385C153.928 366.713 152.119 366.86 150.324 367.098C147.841 367.435 146.046 368.722 146.117 371.338C146.179 373.65 147.936 374.828 150.12 375.132C151.506 375.326 152.926 375.27 154.331 375.317C155.704 375.36 157.385 374.918 158.116 376.471C159.868 380.193 163.083 380.151 166.345 379.795C170.105 379.382 171.933 381.157 172.802 385.355C167.522 385.621 162.802 384.372 158.011 384.177C153.182 383.983 150.595 385.915 148.79 390.094C142.214 405.288 142 420.416 148.577 435.686C150.234 439.542 152.532 441.593 156.858 442.367C205.081 451.038 253.29 459.789 301.442 468.829C310.212 470.472 318.455 471.384 326.157 465.828C326.632 465.491 327.254 465.33 327.828 465.164C349.252 458.972 370.131 451.142 391.246 444.02C402.452 440.245 413.572 436.209 424.74 432.329C425.757 431.978 426.682 431.527 426.972 430.52C427.414 428.972 426.003 428.593 425.059 427.914Z" fill="#61AF3F"/>
</g>
<mask id="mask1_709_137" style="mask-type:luminance" maskUnits="userSpaceOnUse" x="120" y="105" width="304" height="422">
<path d="M120.002 105.388H423.012V526.943H120.002V105.388Z" fill="white"/>
</mask>
<g mask="url(#mask1_709_137)">
<path d="M266.786 129.096C273.68 131.28 280.688 131.522 287.512 129.319C290.873 128.236 294.568 126.199 295.076 122.272C295.65 117.743 295.346 113.056 294.449 108.488C293.936 105.881 292.293 105.207 290.014 106.119C287.602 107.097 285.147 108.123 283.224 109.932C281.496 111.56 279.843 111.655 277.816 110.53C274.62 108.754 271.13 107.942 267.474 107.634C264.454 107.387 262.873 108.906 262.484 111.575C262.165 113.73 262.417 115.971 262.417 118.179C262.384 118.179 262.346 118.179 262.308 118.179C262.308 119.58 262.455 121.005 262.284 122.391C261.828 125.986 263.462 128.042 266.786 129.096ZM263.125 132.467C262.199 135.211 262.712 138.027 262.764 140.795C263.006 153.91 264.212 155.178 277.526 156.379C280.114 156.612 282.735 156.598 285.337 156.484C288.39 156.351 291.201 155.311 293.855 153.787C296.182 152.452 297.303 150.667 297.079 147.894C296.681 142.899 296.5 137.88 296.182 132.875C296.12 131.897 296.016 130.862 295.047 130.235C285.669 134.86 281.605 136.437 263.125 132.467ZM264.017 156.93C264.017 164.551 264.003 171.151 264.032 177.751C264.036 179.375 264.131 180.985 265.964 181.792C270.181 183.653 274.231 186.07 278.618 187.3C284.188 188.857 289.748 187.537 294.981 185.092C297.877 183.739 298.884 181.616 298.537 178.311C297.967 172.936 297.939 167.504 297.635 162.096C297.554 160.596 297.872 158.967 296.571 157.177C285.859 162.984 275.161 161.004 264.017 156.93ZM298.01 188.411C286.88 194.028 276.073 192.813 265.56 185.287C265.56 195.88 265.385 205.472 265.646 215.049C265.765 219.56 268.666 221.582 272.502 219.55C278.433 216.407 284.083 217.518 289.967 219.023C295.997 220.566 298.936 218.776 299.15 212.746C299.387 206.151 300.047 199.541 299.363 192.936C299.211 191.464 299.791 189.717 298.01 188.411ZM291.785 296.638C291.633 298.025 291.628 299.43 291.605 299.862C291.453 309.036 292.787 310.294 300.907 309.601C302.92 309.425 304.871 309.591 306.832 310.175C310.859 311.382 314.914 312.464 318.978 313.518C325.465 315.194 331.984 315.755 338.537 313.841C342.805 312.597 346.214 308.685 342.644 303.148C340.084 299.174 336.927 295.869 332.786 293.704C329.254 291.857 325.455 290.518 321.823 288.861C318.722 287.441 315.83 287.446 312.611 288.865C308.195 290.812 303.471 291.876 298.575 291.368C292.626 290.75 292.402 290.86 291.785 296.638ZM230.423 323.143C235.993 324.311 241.078 323.471 246.107 320.897C250.888 318.447 255.342 315.204 260.845 314.354C270.541 312.858 274.938 306.704 273.243 296.994C272.246 291.282 272.061 291.14 266.126 291.292C265.128 291.315 264.126 291.292 263.125 291.292C259.207 291.486 255.086 289.919 251.415 292.474C246.966 295.57 242.109 297.939 237.332 300.461C233.054 302.716 229.274 305.703 226.055 309.335C223.918 311.752 221.52 314.278 222.959 317.834C224.255 321.035 227.028 322.436 230.423 323.143ZM135.691 383.209C148.027 384.984 160.434 385.801 172.865 386.513C173.363 386.542 173.615 386.233 173.601 385.303C163.62 364.106 165.685 343.318 179.033 322.749C171.849 322.307 165.496 321.908 159.152 321.538C152.732 321.163 146.256 321.225 139.926 320.294C136.503 319.786 133.943 320.436 131.678 322.568C126.921 327.051 123.279 332.317 121.683 338.751C118.108 353.181 120.102 366.613 128.943 378.85C130.705 381.281 132.576 382.757 135.691 383.209ZM181.545 382.425C183.52 386.043 185.956 387.952 190.476 388.123C202.907 388.588 215.31 389.723 227.722 390.554C229.051 390.64 230.48 391.281 231.805 390.132C219.958 368.532 223.852 347.796 235.965 326.771C219.583 325.56 203.994 324.444 188.411 323.224C185.961 323.034 184.731 324.316 183.662 326.144C181.022 330.674 179 335.493 177.513 340.498C173.197 354.99 174.218 369.006 181.545 382.425ZM310.413 333.76C307.231 336.96 305.93 342.184 304.245 346.685C299.007 360.654 299.349 374.201 307.915 386.964C309.145 388.802 310.451 390.63 311.353 392.629C312.678 395.559 314.71 396.613 317.915 396.76C330.351 397.33 342.815 397.838 355.193 399.068C361.024 399.652 365.72 398.313 370.45 395.193C384.865 385.706 398.588 375.146 413.844 366.946C415.197 366.219 417.068 365.502 416.873 363.584C416.655 361.409 414.533 361.894 413.08 361.537C411.722 361.2 410.373 360.863 409.001 360.607C408.716 360.559 408.36 360.887 408.042 361.039C407.762 362.625 409.775 363.185 409.632 365.146C396.674 372.316 384.277 380.844 371.684 389.063C369.509 390.483 367.055 391.471 364.794 392.767C362.667 393.987 361.281 393.94 360.113 391.361C356.428 383.218 353.778 374.885 354.268 365.801C354.709 357.715 356.561 349.933 359.097 342.283C359.571 340.854 360.896 339.52 359.951 337.739C357.739 336.903 355.569 336.016 353.095 335.845C343.28 335.151 333.484 334.083 323.66 333.632C319.183 333.428 313.77 330.379 310.413 333.76ZM302.711 333.181C301.714 331.761 300.698 331.661 299.71 331.59C295.308 331.244 290.902 330.949 286.505 330.612C273.504 329.615 260.508 328.551 247.503 327.63C242.474 327.269 242.436 327.402 240.333 332.027C237.228 338.822 235.043 345.93 234.022 353.299C232.403 365.013 232.916 376.509 238.813 387.24C240.371 390.079 242.142 391.679 245.713 391.879C263.134 392.848 280.536 394.153 297.948 395.307C299.064 395.378 300.332 395.901 301.752 394.22C287.754 373.826 289.25 353.152 302.711 333.181ZM418.379 488.197C412.13 491.393 405.986 494.831 399.974 498.463C387.767 505.828 375.326 512.888 363.655 521.041C355.588 526.673 347.273 528.107 338.114 526.464C310.218 521.454 282.037 518.548 253.96 514.887C227.071 511.383 200.144 508.188 173.245 504.793C162.68 503.458 152.143 501.939 141.593 500.538C139.603 500.268 137.528 499.712 135.619 500.035C131.588 500.704 129.357 498.862 127.225 495.757C124.162 491.289 122.329 486.564 122.396 481.146C122.481 474.936 121.897 468.692 123.901 462.609C125.192 458.682 127.201 455.487 130.553 452.866C136.479 448.236 143.164 445.059 149.784 441.679C151.958 440.568 154.085 440.9 156.241 441.261C200.609 448.687 244.977 456.128 289.335 463.587C296.866 464.85 304.411 466.014 311.875 467.59C315.175 468.288 318.086 468.013 321.22 466.939C349.515 457.258 377.843 447.676 406.161 438.056C409.955 436.764 413.73 435.397 417.51 434.067C419.276 433.445 420.758 433.749 421.413 435.644C422.044 437.457 422.163 439.252 419.874 440.131C418.564 440.629 417.239 441.109 415.914 441.579C394.02 449.38 373.693 460.221 354.429 473.155C351.433 475.168 349.42 477.604 348.403 481.047C345.569 490.662 343.864 500.239 348.522 509.816C351.836 516.621 353.584 517.342 360.117 513.567C375.079 504.94 389.941 496.137 404.832 487.385C410.349 484.138 416.033 481.227 422.296 478.397C423.982 483.354 422.438 486.122 418.379 488.197Z" fill="#A072FF"/>
</g>
<path d="M245.41 68.7739C244.522 74.3816 245.88 75.7396 253.055 75.7966C249.565 73.5697 247.063 71.9458 245.41 68.7739ZM332.47 295.489C330.376 297.93 328.766 300.617 328.676 303.96C328.676 304.274 328.994 304.706 329.284 304.9C329.839 305.28 330.599 305.119 330.846 304.615C332.152 301.961 333.348 299.259 334.54 296.667C334.35 296.183 334.302 295.727 334.051 295.508C333.585 295.105 332.887 295 332.47 295.489ZM239.266 299.05C241.844 300.081 243.549 300.608 245.102 301.42C246.664 302.246 248.079 303.357 249.551 304.35C250.244 304.815 250.966 305.033 251.697 304.478C252.29 304.022 252.086 303.4 251.83 302.887C250.059 299.392 244.527 297.398 239.266 299.05ZM320.328 300.475C320.081 300.988 319.977 301.762 320.661 302.037C321.14 302.232 322.08 302.289 322.28 302.013C324.592 298.856 327.55 296.13 328.709 292.004C324.611 293.566 322.142 296.714 320.328 300.475ZM280.733 70.2221C282.665 69.5526 285.419 70.2506 286.853 67.753C287.295 66.9886 286.834 66.2099 286.193 65.6685C283.919 63.7313 281.673 65.0608 279.47 65.8442C278.14 66.3143 276.564 67.1025 276.948 68.6932C277.319 70.2079 279.037 70.2839 280.733 70.2221ZM239.124 305.608C236.982 304.454 234.917 302.55 231.108 304.445C235.268 306.956 238.592 308.974 241.925 310.988C242.257 311.192 242.59 311.529 242.936 311.548C243.468 311.581 244.109 311.534 244.537 311.258C245.04 310.931 245.178 310.266 244.807 309.696C243.435 307.616 241.18 306.719 239.124 305.608ZM295.595 61.6563C296.245 60.3647 296.497 59.021 296.407 57.606C296.335 56.4142 296.288 54.966 294.697 55.0134C293.539 55.0467 293.41 56.2955 293.239 57.2974C293.012 58.5841 293.467 60.4645 291.644 60.7066C289.911 60.9393 289.721 59.0305 289.028 57.9051C288.624 57.2404 288.292 56.5044 286.787 56.3619C285.846 58.5984 286.587 60.4597 287.656 62.1311C289.949 65.7113 293.705 65.4264 295.595 61.6563ZM273.981 60.3268C274.223 59.5765 274.474 58.7978 274.522 58.0143C274.598 56.8035 274.479 55.3743 272.955 55.2936C271.83 55.2319 271.568 56.4664 271.383 57.4683C271.06 59.1872 270.999 61.6895 268.914 61.6278C266.644 61.5613 267.48 58.8026 266.796 57.2879C266.654 56.9697 266.303 56.7371 265.662 56.0628C263.677 60.3932 264.603 64.1966 267.651 65.2317C270.172 66.0911 272.755 64.0969 273.981 60.3268ZM292.166 73.4652C290.528 74.0635 288.919 74.7615 287.242 75.2411C282.803 76.5183 278.259 76.3949 274.726 73.4035C271.317 70.5118 271.193 73.2943 269.997 74.9229C277.755 77.4205 285.357 82.145 292.166 73.4652ZM267.48 88.8638C274.194 91.5276 280.842 90.991 284.854 87.5343C279.944 86.7034 275.149 88.0471 270.4 86.6416C265.448 85.1744 261.92 81.8696 257.998 78.845C258.701 84.5239 262.832 87.0215 267.48 88.8638ZM389.154 162.357C393.623 161.897 397.559 164.504 402.174 162.571C399.169 160.71 396.277 160.8 393.694 159.955C391.97 159.395 390.199 159 388.841 157.704C388.048 156.94 387.754 155.924 388.271 154.969C388.713 154.148 389.624 154.504 390.413 154.561C393.988 154.817 397.573 155.017 401.158 155.235C399.259 153.877 397.207 153.355 395.142 152.87C393.39 152.462 391.6 152.163 389.862 151.693C388.551 151.341 387.792 150.397 388.153 148.996C388.494 147.681 389.686 147.98 390.626 148.06C394.026 148.364 397.412 149.219 401.168 148.583C396.443 145.401 389.734 148.279 386.135 141.964C385.721 148.692 385.199 154.713 386.681 160.843C388.556 168.549 395.588 171.64 402.853 167.576C398.475 165.952 392.578 168.369 389.154 162.357ZM151.879 167.291C154.035 168.511 155.464 168.35 156.836 168.35C162.444 168.35 168.061 168.986 173.664 168.179C174.742 168.022 175.725 167.903 175.886 169.285C176.01 170.363 175.487 171.322 174.485 171.697C172.406 172.467 170.255 172.965 168.023 173.003C164.21 173.07 160.397 173.108 156.589 173.212C155.326 173.25 153.906 172.918 152.302 174.579C159.87 176.897 167.145 175.154 175.293 175.881C169.386 181.194 162.187 177.675 156.523 181.146C161.746 182.576 166.67 181.407 172.126 182.191C168.303 186.066 163.075 184.166 159.424 187.314C163.56 188.672 167.073 187.908 170.554 186.863C172.107 186.403 173.797 185.743 174.343 184.142C176.556 177.732 180.15 171.446 176.698 164.138C169.12 167.989 160.369 163.768 151.879 167.291ZM249.375 66.3143C250.078 66.414 250.657 67.2497 251.346 67.6533C254.299 69.4007 255.158 69.092 255.714 65.7635C256.27 62.4017 256.502 58.983 256.949 55.5975C257.347 52.5728 258.796 50.3079 261.925 49.5007C262.575 49.3393 263.658 49.0069 263.292 50.4124C262.656 52.8815 263.795 52.777 265.443 51.9556C271.075 49.1541 276.587 49.4722 282.024 52.5016C282.546 52.7913 283.116 53.0097 283.667 53.2471C288.23 55.1986 292.622 54.852 296.896 52.3354C298.059 51.6564 298.999 50.3839 300.652 50.7068C301.53 52.1502 301.098 53.7931 301.321 55.3316C301.549 56.9222 301.649 58.5414 302.503 59.9611C303.273 61.2432 304.379 62.2118 305.936 61.8699C307.565 61.5091 307.142 59.9944 307.085 58.8928C306.777 52.6773 306.682 46.4333 305.913 40.2701C305.518 37.1362 305.371 34.4202 307.161 31.69C308.529 29.6007 308.795 27.1554 308.363 24.7053C307.669 20.769 305.291 19.6579 301.972 21.994C294.184 27.483 285.5 29.1449 276.226 28.4137C271.193 28.0148 266.122 27.7109 261.189 28.6036C248.497 30.9018 243.316 35.4648 242.661 46.9082C242.481 50.1085 242.481 53.3421 242.718 56.5329C243.046 60.982 243.506 65.4976 249.375 66.3143ZM324.531 257.745C312.992 256.805 301.706 258.035 290.609 261.302C285.528 262.797 284.64 262.37 283.999 257.019C283.092 249.46 282.67 241.839 281.948 234.251C281.649 231.108 281.117 227.978 280.685 224.84C280.334 224.887 279.987 224.93 279.636 224.978C279.137 233.382 278.634 241.782 278.135 250.181C277.713 257.327 275.837 259.36 268.724 258.253C258.653 256.691 248.748 257.308 238.767 258.662C233.881 259.322 233.616 258.956 233.53 254.089C233.321 241.634 234.109 229.218 234.902 216.796C235.192 212.257 235.344 212.096 240.04 213.002C247.913 214.527 255.766 216.136 263.558 218.031C266.559 218.762 269.275 219.066 272.352 218.287C277.998 216.849 283.786 216.098 289.655 216.924C292.917 217.39 296.027 216.758 299.08 215.576C305.063 213.254 311.074 211.022 317.076 208.748C319.497 207.832 321.834 206.649 324.431 206.521C325.979 207.851 325.48 209.574 325.623 211.075C326.962 224.854 328.248 238.634 329.521 252.418C330.001 257.655 329.573 258.154 324.531 257.745Z" fill="#4A2218"/>
<path d="M324.891 157.894C324.35 157.229 324.435 156.436 324.782 155.648C326.33 152.13 333.072 149.556 336.771 151.099C341.011 152.861 342.393 157.543 339.981 162.3C339.255 163.72 338.253 164.997 337.379 166.341C336.548 167.614 335.722 168.891 334.354 170.98C338.329 169.969 341.358 169.114 344.43 168.445C345.764 168.155 347.398 167.918 347.949 169.746C348.48 171.503 347.146 172.343 345.85 172.894C340.143 175.349 334.335 177.557 328.258 178.919C325.926 179.442 325.019 178.06 325.176 175.776C325.318 173.549 326.809 172.186 328.191 170.752C330.708 168.136 333.039 165.363 334.454 161.997C335.238 160.145 335.85 157.946 333.889 156.493C332.232 155.263 330.466 156.052 328.96 157.262C328.495 157.642 328.082 158.108 327.569 158.393C326.577 158.939 325.603 158.758 324.891 157.894ZM170.791 117.059C169.889 116.38 169.865 115.411 170.221 114.367C171.574 110.364 177.106 106.399 181.346 106.437C183.431 106.456 185.368 106.978 186.65 108.716C188.663 111.447 190.553 114.219 193.122 116.522C194.575 117.828 193.568 119.063 192.025 119.647C189.404 120.63 185.805 119.314 183.502 116.622C179.409 111.85 179.404 111.845 174.338 115.786C174.02 116.033 173.749 116.332 173.45 116.594C172.657 117.301 171.75 117.781 170.791 117.059ZM375.037 156.113C376.642 153.132 376.058 151.788 372.63 151.346C371.647 151.223 370.636 151.346 369.634 151.318C368.395 151.28 367.046 151.085 366.657 149.774C366.239 148.331 367.474 147.571 368.585 147.139C371.073 146.166 372.53 144.518 372.673 141.788C372.787 139.741 371.6 138.929 369.681 139.689C368.257 140.249 367.621 141.517 366.723 142.571C365.968 143.455 365.004 143.559 364.045 142.975C363.295 142.524 363.157 141.769 363.286 140.9C363.808 137.453 368.024 134.409 371.804 134.789C375.341 135.145 378.029 138.127 377.407 141.935C376.866 145.259 377.146 147.685 379.734 150.197C381.733 152.13 381.239 155.069 379.838 157.495C378.091 160.529 375.104 161.612 371.69 162.291C370.683 161.997 369.506 161.745 368.409 161.318C367.279 160.876 365.987 160.168 366.424 158.772C366.984 156.973 368.281 158.008 369.278 158.488C372.108 159.86 373.713 158.573 375.037 156.113ZM331.928 40.8208C332.939 36.1485 333.69 31.6757 331.904 26.7944C330.38 22.6255 335.119 17.844 339.943 17.7822C344.378 17.7253 349.677 23.1668 349.52 27.6254C349.53 30.0565 348.357 32.103 346.367 33.0717C342.07 35.1751 339.915 38.8076 338.186 42.9243C337.882 43.6555 337.408 44.3155 337.004 45.004C336.225 46.3241 335.247 47.1882 333.59 46.4808C332.127 45.8635 331.425 44.7714 331.577 43.1902C331.657 42.3925 331.757 41.5995 331.928 40.8208ZM204.969 122.42C204.233 117.41 205.8 113.863 209.076 112.748C211.597 111.888 213.858 112.434 215.577 114.509C216.593 115.729 217.405 117.13 218.297 118.45C219.912 120.834 221.83 121.399 224.413 119.799C228.273 117.42 232.409 116.299 237.024 117.154C241.008 117.895 244.261 119.5 245.961 123.384C246.834 125.378 247.77 127.049 250.377 125.634C251.545 124.998 252.741 124.998 253.586 126.161C254.493 127.415 254.308 128.811 253.729 130.155C251.592 135.083 245.31 136.099 241.877 131.973C240.885 130.777 240.272 129.224 239.645 127.771C237.566 122.961 234.513 121.575 229.707 123.407C228.781 123.763 227.932 124.314 227.034 124.756C220.785 127.838 216.631 126.722 212.666 120.896C212.006 119.932 211.768 118.612 210.415 118.18C208.183 118.802 207.623 121.527 204.969 122.42ZM250.006 103.27C248.662 102.9 247.304 102.615 246.075 101.242C248.487 99.7848 250.856 98.3888 253.188 96.9311C254.36 96.1951 255.438 96.2758 256.535 97.0308C257.694 97.8285 258.824 98.6737 260.025 99.3907C268.235 104.3 276.839 105.768 285.87 101.926C290.438 99.9794 295.414 98.6642 298.776 94.5759C299.535 93.6453 300.475 93.669 301.477 93.8637C305.385 94.6282 309.284 95.4116 313.187 96.1856C313.282 96.6747 313.372 97.1637 313.462 97.6528C306.572 100.635 299.777 103.892 292.741 106.485C289.55 107.657 286.24 108.46 283.396 110.383C281.791 111.461 280.329 111.722 278.363 111.147C268.942 108.403 259.465 105.863 250.006 103.27ZM248.302 281.04C245.875 273.847 246.91 272.403 254.574 273.158C259.792 273.671 264.973 273.657 270.196 273.362C273.515 273.168 274.55 274.326 274.341 277.579C274.222 279.374 273.88 281.164 273.501 282.925C271.639 291.586 273.14 291.306 262.622 291.771C252.556 291.415 251.559 290.67 248.302 281.04ZM166.859 137.481C164.951 136.014 166.076 133.768 167.154 132.025C169.86 127.662 175.359 127.268 178.896 131.285C180.321 132.894 181.346 134.87 182.529 136.646C197.576 129.461 200.776 130.292 205.615 142.685C208.421 141.693 210.719 139.632 213.691 138.925C219.788 137.472 223.103 138.654 226.422 143.929C226.849 144.608 227.105 145.406 227.594 146.028C228.753 147.514 231.108 148.749 228.653 150.919C226.602 152.718 223.411 152.533 221.583 150.468C220.671 149.442 220.121 148.089 219.432 146.873C217.352 143.155 215.975 142.69 212.257 144.646C211.203 145.207 210.277 146.009 209.309 146.721C204.936 149.941 200.98 148.915 198.891 143.958C198.426 142.856 198.245 141.641 197.88 140.492C196.721 136.888 195.131 136.123 191.655 137.766C190.226 138.436 189 139.537 187.695 140.468C182.163 144.437 178.364 143.663 174.798 137.79C174.181 136.774 173.873 135.553 172.486 134.718C171.836 135.05 171.432 135.164 171.147 135.411C169.879 136.532 168.839 139.02 166.859 137.481ZM246.986 180.406C245.396 181.915 243.824 181.146 242.879 179.774C240.533 176.341 237.96 177.129 235.149 178.929C233.805 179.798 232.485 180.766 231.027 181.393C226.398 183.397 222.784 182.034 220.538 177.557C220.182 176.844 220.011 176.037 219.665 175.315C217.775 171.417 215.121 170.8 211.517 173.435C210.543 174.143 209.717 175.054 208.701 175.676C204.879 177.998 200.339 177.443 197.13 174.304C196.417 173.606 195.838 172.775 195.173 172.02C192.244 168.72 191.792 168.639 188.208 170.805C187.699 171.118 187.286 171.579 186.774 171.882C185.876 172.419 184.917 172.666 183.996 171.93C182.837 171.013 183.065 169.812 183.459 168.658C184.57 165.392 188.796 162.533 192.718 162.552C196.014 162.865 198.706 164.732 201.08 167.381C204.029 170.672 204.119 170.591 207.908 168.16C215.781 163.112 222.438 165.206 226.213 173.934C227.765 177.528 228.041 177.675 231.208 175.315C233.321 173.734 235.439 172.272 238.007 171.588C241.711 170.596 245.975 172.571 247.556 175.994C248.287 177.58 248.349 179.119 246.986 180.406ZM319.497 279.896C315.846 289.497 312.038 292.137 301.188 292.246C300.86 292.237 300.062 292.222 299.269 292.146C293.367 291.605 293.372 291.6 292.161 285.632C291.644 283.091 290.965 280.58 290.599 278.016C290.115 274.644 290.856 273.486 294.137 273.13C301.672 272.313 309.231 271.577 316.8 271.126C321.202 270.865 322.147 272.398 320.808 276.553C320.442 277.688 319.924 278.775 319.497 279.896ZM323.22 37.0649C320.19 32.3404 317.631 27.2218 318.761 21.2057C320.461 12.1888 325.299 5.5982 334.164 2.79198C343.053 -0.018996 350.869 1.98002 358.195 8.16701C371.386 19.2969 364.625 37.9244 353.718 43.119C352.279 43.8075 350.802 44.5292 349.259 44.8996C342.531 46.5235 342.521 46.476 339.027 49.4912C338.908 43.2187 339.867 41.8892 345.636 40.3412C354.563 37.9386 360.892 27.8866 358.832 19.3634C356.496 9.66271 345.456 3.60393 335.608 6.2962C323.899 9.49652 319.782 23.3187 325.271 30.7118C326.107 31.8324 326.534 33.2426 327.336 34.3917C330.399 38.7648 330.703 43.1427 328.12 47.9432C326.439 51.0818 327.056 51.7846 330.428 51.4047C332.032 51.2243 333.599 50.8824 335.214 51.267C336.491 51.5709 337.412 52.2594 337.74 53.5509C338.072 54.8709 337.597 56.0865 336.453 56.642C334.402 57.6344 332.669 58.0333 334.578 61.1434C335.912 63.3134 333.31 64.4814 331.282 65.0702C326.6 66.4377 326.6 66.433 326.097 71.9837C323.058 69.8755 322.099 68.0426 322.379 64.6476C322.859 58.8025 323.794 53.1046 325.072 47.3972C325.864 43.855 325.375 40.4362 323.22 37.0649ZM157.002 433.702C157.083 433.246 157.709 432.567 158.127 432.538C160.122 432.42 162.13 432.486 164.129 432.486C173.797 432.866 183.203 435.112 192.718 436.589C225.253 441.664 257.784 446.75 290.309 451.845C294.474 452.495 298.633 453.174 302.769 453.996C304.697 454.376 306.126 455.634 305.874 457.79C305.585 460.249 303.714 460.985 301.511 460.985C300.718 460.985 299.934 460.715 299.141 460.586C294.982 459.907 290.813 459.266 286.658 458.54C251.264 452.372 215.842 446.308 180.354 440.705C174.214 439.737 168.141 438.336 162.064 437.006C160.53 436.669 159.063 435.914 157.652 435.188C157.263 434.984 156.921 434.162 157.002 433.702ZM158.521 423.972C156.698 423.374 154.034 423.189 154.661 420.426C155.164 418.232 157.472 418.654 159.3 418.479C170.425 420.069 181.579 421.518 192.685 423.274C227.186 428.735 261.668 434.305 296.159 439.846C297.342 440.036 298.538 440.235 299.687 440.582C301.625 441.161 302.907 442.358 302.399 444.561C301.966 446.427 300.485 447.153 298.738 446.954C295.352 446.569 291.981 446.033 288.61 445.496C256.302 440.344 223.99 435.221 191.693 429.998C181.588 428.36 171.532 426.446 161.456 424.647C160.468 424.471 159.471 424.286 158.521 423.972ZM155.986 390.193C156.48 388.745 157.762 388.821 158.996 389.02C162.163 389.529 165.326 390.065 168.493 390.564C205.183 396.338 242.034 401.1 278.543 408.009C285.053 409.243 291.629 410.103 298.158 411.185C299.944 411.485 301.743 411.822 303.438 412.41C305.262 413.047 306.591 414.319 306.116 416.508C305.642 418.688 303.927 419.162 301.705 419.21C300.195 418.901 298.438 418.483 296.658 418.184C258.05 411.731 219.432 405.317 180.833 398.807C174.703 397.776 168.621 396.404 162.553 395.046C160.815 394.661 159.139 393.887 157.543 393.08C156.475 392.539 155.501 391.594 155.986 390.193ZM149.576 405.041C149.723 403.151 151.518 403.28 152.833 403.123C154.219 402.961 155.634 403.09 156.432 403.09C171.636 404.571 186.047 407.23 200.501 409.585C231.982 414.718 263.458 419.889 294.939 425.046C296.701 425.33 298.552 425.311 300.067 426.518C301.306 427.505 301.71 428.763 301.297 430.254C300.95 431.517 300.062 432.458 298.771 432.491C296.781 432.553 294.749 432.51 292.788 432.187C252.019 425.468 211.251 418.716 170.492 411.936C166.337 411.242 162.211 410.378 158.099 409.481C156.143 409.058 154.21 408.484 152.33 407.8C151.038 407.335 149.447 406.76 149.576 405.041ZM314.35 157.258C314.478 154.912 315.262 153.018 317.484 151.849C327.398 146.617 337.512 141.878 349.193 138.787C349.914 150.496 351.98 161.303 354.625 171.996C355.057 173.744 354.615 174.769 353.086 175.282C343.742 178.407 335.29 183.563 326.121 187.072C325.005 187.499 323.808 187.77 322.626 187.951C318.88 188.535 316.672 187.348 316.088 183.606C314.72 174.893 313.875 166.113 314.35 157.258ZM348.12 104.001C349.269 103.061 350.494 104.03 350.935 105.26C351.467 106.75 351.799 108.341 352.008 109.913C352.384 112.695 352.573 115.502 352.896 118.293C353.537 123.811 353.566 123.892 358.955 123.051C360.883 122.757 362.151 123.331 362.787 125.017C363.494 126.883 362.004 127.524 360.66 127.966C355.703 129.585 350.722 131.128 345.755 132.7C344.563 133.075 343.319 133.374 342.683 131.912C342.217 130.843 343.101 130.022 343.632 129.229C343.951 128.768 344.549 128.474 345.052 128.16C349.99 125.06 350.138 125.036 349.064 119.528C348.499 116.655 348.813 113.54 347.336 110.953C345.38 110.801 344.653 112.197 343.59 113.018C342.664 113.73 341.899 114.751 339.981 114.338C341.073 109.538 344.71 106.803 348.12 104.001ZM309.792 153.953C308.984 166.071 310.224 178.036 312.873 189.836C313.756 193.739 315.148 194.46 319.008 193.667C324.706 192.499 330.347 191.156 335.603 188.416C340.223 186.004 344.952 183.706 349.848 181.93C362.858 177.2 374.924 170.069 388.618 167.096C386.813 162.495 386.818 162.5 382.886 163.468C377.407 164.826 372.198 166.901 367.079 169.276C364.392 170.52 361.837 172.272 358.186 172.39C356.624 161.28 355.076 150.183 353.476 139.091C353.176 137.002 354.221 136.223 356.035 135.8C362.113 134.381 367.863 131.964 373.77 130.026C377.739 128.725 381.78 127.676 386.509 126.309C386.675 128.825 386.713 130.416 386.899 131.997C387.108 133.782 387.34 135.582 387.768 137.329C388.147 138.853 388.57 140.815 390.745 140.325C392.407 139.95 392.364 138.198 392.288 136.812C392.112 133.398 391.946 129.984 391.561 126.593C390.973 121.404 389.306 120.354 384.33 121.916C381.652 122.757 379.017 123.749 376.367 124.694C374.078 125.511 372.948 124.59 372.701 122.301C372.592 121.304 372.526 120.297 372.388 119.305C371.519 113.137 370.902 106.921 369.681 100.82C368.418 94.5332 365.954 93.0707 359.805 94.7896C350.722 97.3252 341.776 100.369 333.148 104.215C327.118 106.902 326.04 108.712 326.653 115.521C327.26 122.315 327.455 129.172 328.894 135.876C329.582 139.091 328.87 141.08 325.461 142.339C321.529 143.787 317.821 145.876 314.084 147.818C311.643 149.086 309.982 151.08 309.792 153.953ZM417.572 476.512C419.761 480.154 419.562 480.135 416.1 482.324C402.877 490.681 389.021 497.903 375.218 505.234C369.743 508.135 364.591 511.663 359.273 514.864C354.131 517.96 352.896 517.656 349.587 512.604C346.296 507.575 345.337 501.882 344.829 495.966C345.271 490.23 346.401 484.56 347.925 478.953C348.452 477.001 350.123 476.189 351.576 475.154C361.415 468.193 371.718 462.02 382.416 456.489C391.675 451.698 401.015 447.063 410.659 443.098C413.641 441.869 414.116 442.344 413.802 445.553C413.418 449.542 412.644 453.535 412.748 457.509C412.914 464.148 414.054 470.634 417.572 476.512ZM363.665 332.54C376.832 324.701 390.702 318.442 405.141 313.39C405.678 313.205 406.314 313.309 406.879 313.281C408.09 315.081 407.383 316.828 406.884 318.537C403.783 329.23 404.106 339.98 406.438 350.726C407.155 354.021 407.857 357.335 410.744 359.776C413.218 361.87 413.057 363.019 410.384 364.781C406.362 367.435 402.169 369.814 398.105 372.406C388.29 378.679 378.523 385.018 368.708 391.285C367.022 392.359 365.228 393.275 363.442 394.187C361.006 395.426 359.325 394.661 357.996 392.297C349.573 377.311 347.469 361.694 353.233 345.317C355.157 339.857 358.552 335.579 363.665 332.54ZM380.778 399.975C391.348 396.793 401.913 393.607 412.535 390.602C414.477 390.051 416.585 388.47 419.353 390.706C411.547 400.488 412.554 410.616 417.397 420.9C419.785 425.971 419.657 426.731 414.291 428.555C401.566 432.89 388.788 437.063 376.035 441.308C360.042 446.622 344.074 452.006 328.053 457.234C320.072 459.836 319.421 459.333 316.249 451.389C312.721 442.567 312.792 433.797 316.074 424.951C317.555 420.948 319.943 418.284 324.293 417.007C343.162 411.466 361.951 405.654 380.778 399.975ZM331.448 488.943C329.715 495.966 328.675 503.188 325.451 509.826C323.998 505.324 324.203 500.994 324.625 496.659C324.839 494.479 325.048 492.295 325.143 490.111C325.28 486.925 327.655 485.505 330.456 487.001C331.254 487.428 331.653 488.126 331.448 488.943ZM312.028 487.158C310.228 492.162 308.324 497.129 306.458 502.115C306.007 502.024 305.551 501.939 305.105 501.853C305.642 496.687 305.851 491.521 305.594 486.341C305.447 483.283 307.907 484.394 309.469 484.404C311.173 484.413 312.883 484.783 312.028 487.158ZM286.041 501.108C285.708 495.372 286.098 489.674 284.759 484.119C284.293 482.181 285.533 481.616 287.18 481.825C289.516 482.12 291.986 481.678 295.02 483.406C290.224 488.596 289.915 495.591 286.041 501.108ZM269.973 485.315C268.919 488.758 268.235 492.314 267.375 495.818C266.877 497.874 266.563 500.03 264.545 501.526C265.277 493.981 265.367 486.692 262.727 479.973C264.223 478.744 265.229 479.147 266.193 479.242C271.772 479.793 271.668 479.769 269.973 485.315ZM244.308 496.417C243.449 490.51 243.786 484.613 242.286 478.9C241.815 477.12 242.898 476.379 244.707 476.659C246.464 476.93 248.235 477.11 250.842 477.438C248.924 484.28 247.38 490.538 244.308 496.417ZM225.595 492.818C225.211 492.742 224.826 492.661 224.442 492.585C224.442 486.754 224.442 480.928 224.442 474.888C226.915 474.323 228.658 474.584 231.023 475.268C229.199 481.156 227.4 486.987 225.595 492.818ZM211.431 477.813C209.812 480.662 208.35 483.601 206.37 487.352C205.847 482.272 205.429 478.217 205.007 474.152C204.883 472.979 205.354 472.262 206.574 472.182C207.167 472.148 207.761 472.201 208.359 472.215C213.962 472.395 214.214 472.903 211.431 477.813ZM188.113 484.921C187.614 480.871 187.21 476.802 186.588 472.77C186.194 470.211 187.301 469.58 189.551 469.893C191.094 470.107 192.704 469.978 194.542 471.146C191.735 475.467 189.969 480.14 188.113 484.921ZM167.861 491.407C166.836 482.656 168.051 475.201 166.114 467.994C171.959 467.343 171.959 467.343 176.636 469.276C172.168 475.52 171.717 483.331 167.861 491.407ZM149.713 482.362C149.713 476.797 149.713 471.227 149.713 465.42C151.803 464.917 153.816 465.116 156.29 466.317C152.961 471.37 152.258 477.115 149.713 482.362ZM135.573 484.831C133.878 484.589 133.792 483.52 133.574 482.571C132.349 477.243 132.216 471.844 132.7 466.441C133.042 462.562 133.474 462.3 137.154 462.946C138.303 463.15 139.414 463.597 140.943 464.048C138.033 471.203 137.069 478.107 135.573 484.831ZM331.98 480.225C325.219 479.29 318.414 478.592 311.634 477.789C286.093 474.779 260.562 471.74 235.021 468.777C208.278 465.686 181.536 462.628 154.78 459.651C147.6 458.858 140.421 457.809 133.166 457.894C130.787 457.923 128.641 458.065 129.248 461.488C129.4 462.372 128.75 463.397 128.451 464.347C125.849 472.732 126.551 481.013 129.339 489.19C129.851 490.695 130.568 492.191 131.485 493.482C134.111 497.157 137.539 496.858 139.258 492.765C140.027 490.942 140.35 488.914 140.772 486.953C141.228 484.845 141.323 482.637 143.066 480.334C143.066 482.276 143.028 483.682 143.071 485.083C143.166 488.112 143.536 491.108 144.623 493.948C145.478 496.189 147.073 497.623 149.599 497.642C152.002 497.656 153.194 496.013 153.954 494.076C154.614 492.404 155.122 490.652 155.483 488.891C156.299 484.959 156.945 480.994 157.738 477.058C158.094 475.263 158.322 473.35 160.354 471.298C161.019 477.823 160.174 483.387 160.245 488.957C160.278 491.569 160.145 494.195 161.218 496.668C162.885 500.495 167.595 501.483 170.667 498.62C172.173 497.224 172.951 495.348 173.735 493.492C175.62 489.028 176.726 484.328 178.079 479.708C178.426 478.511 178.246 476.792 180.625 476.711C180.625 479.793 180.596 482.799 180.629 485.795C180.667 489.612 180.544 493.444 180.881 497.233C181.128 499.964 182.519 502.262 185.61 502.713C188.801 503.173 190.406 501.203 191.455 498.587C193.336 493.91 194.546 489.057 195.363 484.081C195.762 481.654 195.729 478.934 198.331 476.806C198.331 481.502 198.521 485.652 198.269 489.779C198.06 493.197 197.747 496.569 198.426 499.973C199.375 504.778 201.246 507.191 204.28 507.285C207.082 507.371 208.934 505.495 210.325 500.78C211.859 495.581 212.471 490.135 214.432 485.049C214.879 483.905 214.841 482.248 216.754 482.21C217.376 484.076 216.825 485.876 216.844 487.661C216.887 491.678 216.764 495.714 217.096 499.703C217.457 504.009 219.798 506.488 223.174 506.849C226.084 507.167 228.743 505.234 230.301 501.436C230.98 499.774 231.251 497.946 231.877 496.255C233.245 492.571 233.207 488.454 235.472 483.91C236.364 487.913 235.757 490.79 235.467 493.677C235.035 497.96 235.358 502.195 237.794 505.861C240.894 510.533 245.405 510.533 248.539 506.056C250.187 503.71 250.937 500.994 251.673 498.273C252.599 494.859 253.738 491.531 255.861 487.571C256.901 490.947 256.321 493.226 255.927 495.524C255.386 498.705 255.068 501.915 256.093 505.068C257.347 508.943 260.281 511.298 263.976 511.492C267.717 511.692 270.666 509.764 271.986 505.5C273.168 501.683 273.738 497.67 274.593 493.748C275.044 491.697 275.068 489.456 276.677 487.751C277.75 488.763 277.769 489.793 277.684 490.762C277.366 494.56 277.37 498.449 276.492 502.124C275.514 506.208 276.625 509.65 278.33 513.102C279.84 516.16 282.356 517.01 285.262 515.543C287.114 514.603 288.339 512.998 289.45 511.303C292.346 506.887 294.122 502.01 295.599 496.963C296.226 494.812 296.169 492.21 298.956 489.94C298.662 494.332 298.41 497.879 298.192 501.431C297.968 505.035 297.546 508.643 298.472 512.224C299.065 514.522 300.305 516.26 302.755 516.768C305.266 517.29 307.023 516.037 308.329 514.061C310.556 510.699 312.318 507.105 313.714 503.311C314.421 501.383 314.744 499.161 316.942 497.048C316.942 501.07 316.928 504.247 316.947 507.433C316.966 509.65 317.17 511.834 317.973 513.943C320.195 519.807 325.181 521.046 329.777 516.834C332.564 514.284 333.956 510.956 334.72 507.366C336.012 501.279 337.17 495.163 338.405 489.062C339.606 483.117 338.248 481.094 331.98 480.225Z" fill="#FFCE5F"/>
</svg>
