<svg xmlns="http://www.w3.org/2000/svg" xmlns:xlink="http://www.w3.org/1999/xlink" width="2000" zoomAndPan="magnify" viewBox="0 0 1500 449.999984" height="600" preserveAspectRatio="xMidYMid meet" version="1.0"><defs><filter x="0%" y="0%" width="100%" height="100%" id="d9ccf744b2"><feColorMatrix values="0 0 0 0 1 0 0 0 0 1 0 0 0 0 1 0 0 0 1 0" color-interpolation-filters="sRGB"/></filter><clipPath id="192f84473e"><path d="M 94.230469 0 L 499.230469 0 L 499.230469 450 L 94.230469 450 Z M 94.230469 0 " clip-rule="nonzero"/></clipPath><mask id="b9690a62ab"><g filter="url(#d9ccf744b2)"><rect x="-150" width="1800" fill="#000000" y="-44.999998" height="539.99998" fill-opacity="0.5"/></g></mask><clipPath id="5d59df8b2e"><path d="M 0.230469 191 L 237 191 L 237 450 L 0.230469 450 Z M 0.230469 191 " clip-rule="nonzero"/></clipPath><mask id="1ec3f9b972"><g filter="url(#d9ccf744b2)"><rect x="-424" width="2160" fill="#000000" y="-98.999996" height="647.999977" fill-opacity="0.2"/></g></mask><clipPath id="1ba7c5739e"><path d="M 0.230469 1 L 236.480469 1 L 236.480469 259 L 0.230469 259 Z M 0.230469 1 " clip-rule="nonzero"/></clipPath><clipPath id="b3e5b4bdc6"><rect x="0" width="237" y="0" height="259"/></clipPath><mask id="4bdc28e9ca"><g filter="url(#d9ccf744b2)"><rect x="-424" width="2160" fill="#000000" y="-98.999996" height="647.999977" fill-opacity="0.2"/></g></mask><clipPath id="d39c80edf7"><rect x="0" width="238" y="0" height="275"/></clipPath><clipPath id="a103a94a63"><path d="M 169 0 L 405.230469 0 L 405.230469 259 L 169 259 Z M 169 0 " clip-rule="nonzero"/></clipPath><mask id="6eb3bfe9ca"><g filter="url(#d9ccf744b2)"><rect x="-424" width="2160" fill="#000000" y="-98.999996" height="647.999977" fill-opacity="0.2"/></g></mask><clipPath id="69f18a72e8"><path d="M 0.28125 0 L 236.230469 0 L 236.230469 258 L 0.28125 258 Z M 0.28125 0 " clip-rule="nonzero"/></clipPath><clipPath id="420803250c"><rect x="0" width="237" y="0" height="259"/></clipPath><mask id="ef776fd72e"><g filter="url(#d9ccf744b2)"><rect x="-424" width="2160" fill="#000000" y="-98.999996" height="647.999977" fill-opacity="0.2"/></g></mask><clipPath id="dd2f5be92c"><path d="M 1 1 L 135 1 L 135 154.519531 L 1 154.519531 Z M 1 1 " clip-rule="nonzero"/></clipPath><clipPath id="3901245a80"><rect x="0" width="136" y="0" height="155"/></clipPath><clipPath id="8bebfb6462"><rect x="0" width="406" y="0" height="450"/></clipPath><clipPath id="801084ffec"><path d="M 547.429688 0 L 952.429688 0 L 952.429688 450 L 547.429688 450 Z M 547.429688 0 " clip-rule="nonzero"/></clipPath><mask id="d1fa802168"><g filter="url(#d9ccf744b2)"><rect x="-150" width="1800" fill="#000000" y="-44.999998" height="539.99998" fill-opacity="0.5"/></g></mask><clipPath id="052af45f55"><path d="M 0.429688 206 L 237 206 L 237 450 L 0.429688 450 Z M 0.429688 206 " clip-rule="nonzero"/></clipPath><mask id="8d6db4d4f2"><g filter="url(#d9ccf744b2)"><rect x="-877" width="2160" fill="#000000" y="-98.999996" height="647.999977" fill-opacity="0.2"/></g></mask><clipPath id="5767d2ad1a"><path d="M 0.429688 1 L 236.839844 1 L 236.839844 244 L 0.429688 244 Z M 0.429688 1 " clip-rule="nonzero"/></clipPath><clipPath id="5a4e0a2aa4"><rect x="0" width="237" y="0" height="244"/></clipPath><mask id="70f4cbf51b"><g filter="url(#d9ccf744b2)"><rect x="-877" width="2160" fill="#000000" y="-98.999996" height="647.999977" fill-opacity="0.2"/></g></mask><clipPath id="dcd88945b0"><path d="M 1 1 L 237.71875 1 L 237.71875 274 L 1 274 Z M 1 1 " clip-rule="nonzero"/></clipPath><clipPath id="1ed6563591"><rect x="0" width="238" y="0" height="275"/></clipPath><clipPath id="aa6feb6d2b"><path d="M 169 0 L 405.429688 0 L 405.429688 274 L 169 274 Z M 169 0 " clip-rule="nonzero"/></clipPath><mask id="9dbbac39aa"><g filter="url(#d9ccf744b2)"><rect x="-877" width="2160" fill="#000000" y="-98.999996" height="647.999977" fill-opacity="0.2"/></g></mask><clipPath id="5b98be402c"><path d="M 0.398438 0 L 236.429688 0 L 236.429688 273 L 0.398438 273 Z M 0.398438 0 " clip-rule="nonzero"/></clipPath><clipPath id="4bc6a4b77e"><rect x="0" width="237" y="0" height="274"/></clipPath><mask id="f91256b97d"><g filter="url(#d9ccf744b2)"><rect x="-877" width="2160" fill="#000000" y="-98.999996" height="647.999977" fill-opacity="0.2"/></g></mask><clipPath id="cf13d87cc4"><path d="M 1 0.078125 L 134 0.078125 L 134 154 L 1 154 Z M 1 0.078125 " clip-rule="nonzero"/></clipPath><clipPath id="0244ef653c"><rect x="0" width="135" y="0" height="155"/></clipPath><clipPath id="a26700c48f"><rect x="0" width="406" y="0" height="450"/></clipPath><clipPath id="a36b1e9df0"><path d="M 1023.152344 0 L 1428.152344 0 L 1428.152344 285.152344 L 1023.152344 285.152344 Z M 1023.152344 0 " clip-rule="nonzero"/></clipPath><mask id="6c2a96bf23"><g filter="url(#d9ccf744b2)"><rect x="-150" width="1800" fill="#000000" y="-44.999998" height="539.99998" fill-opacity="0.5"/></g></mask><clipPath id="2b89786a3f"><path d="M 0.152344 11 L 237 11 L 237 285.121094 L 0.152344 285.121094 Z M 0.152344 11 " clip-rule="nonzero"/></clipPath><mask id="1a63842659"><g filter="url(#d9ccf744b2)"><rect x="-1353" width="2160" fill="#000000" y="-98.999996" height="647.999977" fill-opacity="0.2"/></g></mask><clipPath id="deb8c2ea74"><path d="M 0.152344 1 L 236 1 L 236 274 L 0.152344 274 Z M 0.152344 1 " clip-rule="nonzero"/></clipPath><clipPath id="a9e3aba71f"><rect x="0" width="237" y="0" height="275"/></clipPath><mask id="16579cbb9b"><g filter="url(#d9ccf744b2)"><rect x="-1353" width="2160" fill="#000000" y="-98.999996" height="647.999977" fill-opacity="0.2"/></g></mask><clipPath id="e5c92b6f70"><path d="M 1 0 L 237 0 L 237 184 L 1 184 Z M 1 0 " clip-rule="nonzero"/></clipPath><clipPath id="41e75c46e1"><rect x="0" width="238" y="0" height="185"/></clipPath><clipPath id="16a9130239"><path d="M 169 0 L 405.152344 0 L 405.152344 79 L 169 79 Z M 169 0 " clip-rule="nonzero"/></clipPath><mask id="ae57abc5df"><g filter="url(#d9ccf744b2)"><rect x="-1353" width="2160" fill="#000000" y="-98.999996" height="647.999977" fill-opacity="0.2"/></g></mask><clipPath id="f00b539908"><path d="M 0.078125 0 L 236.152344 0 L 236.152344 78 L 0.078125 78 Z M 0.078125 0 " clip-rule="nonzero"/></clipPath><clipPath id="32d3caeba7"><rect x="0" width="237" y="0" height="79"/></clipPath><mask id="c0a21f2ca2"><g filter="url(#d9ccf744b2)"><rect x="-1353" width="2160" fill="#000000" y="-98.999996" height="647.999977" fill-opacity="0.2"/></g></mask><clipPath id="35c3070a9c"><path d="M 1 0 L 135 0 L 135 35.519531 L 1 35.519531 Z M 1 0 " clip-rule="nonzero"/></clipPath><clipPath id="41fb046ec3"><rect x="0" width="136" y="0" height="36"/></clipPath><clipPath id="7d7daceb89"><rect x="0" width="406" y="0" height="286"/></clipPath></defs><rect x="-150" width="1800" fill="#ffffff" y="-44.999998" height="539.99998" fill-opacity="1"/><rect x="-150" width="1800" fill="#cebdf3" y="-44.999998" height="539.99998" fill-opacity="1"/><g clip-path="url(#192f84473e)"><g mask="url(#b9690a62ab)"><g transform="matrix(1, 0, 0, 1, 94, 0)"><g clip-path="url(#8bebfb6462)"><g clip-path="url(#5d59df8b2e)"><g mask="url(#1ec3f9b972)"><g transform="matrix(1, 0, 0, 1, -0.000000000000014211, 191)"><g clip-path="url(#b3e5b4bdc6)"><g clip-path="url(#1ba7c5739e)"><path fill="#ffffff" d="M 236.050781 205.570312 L 236.050781 69.441406 L 118.160156 1.378906 L 0.273438 69.441406 L 0.273438 205.570312 L 118.160156 273.632812 Z M 236.050781 205.570312 " fill-opacity="1" fill-rule="nonzero"/></g></g></g></g></g><g mask="url(#4bdc28e9ca)"><g transform="matrix(1, 0, 0, 1, 62, 90)"><g clip-path="url(#d39c80edf7)"><path fill="#ffffff" d="M 236.976562 205.890625 L 236.976562 69.765625 L 119.085938 1.699219 L 1.195312 69.765625 L 1.195312 205.890625 L 119.085938 273.953125 Z M 236.976562 205.890625 " fill-opacity="1" fill-rule="nonzero"/></g></g></g><g clip-path="url(#a103a94a63)"><g mask="url(#6eb3bfe9ca)"><g transform="matrix(1, 0, 0, 1, 169, 0)"><g clip-path="url(#420803250c)"><g clip-path="url(#69f18a72e8)"><path fill="#ffffff" d="M 236.421875 189.441406 L 236.421875 53.316406 L 118.535156 -14.746094 L 0.644531 53.316406 L 0.644531 189.441406 L 118.535156 257.507812 Z M 236.421875 189.441406 " fill-opacity="1" fill-rule="nonzero"/></g></g></g></g></g><g mask="url(#ef776fd72e)"><g transform="matrix(1, 0, 0, 1, 205, 61)"><g clip-path="url(#3901245a80)"><g clip-path="url(#dd2f5be92c)"><path fill="#ffffff" d="M 134.351562 115.804688 L 134.351562 39.351562 L 68.144531 1.125 L 1.9375 39.351562 L 1.9375 115.804688 L 68.144531 154.03125 Z M 134.351562 115.804688 " fill-opacity="1" fill-rule="nonzero"/></g></g></g></g></g></g></g></g><g clip-path="url(#801084ffec)"><g mask="url(#d1fa802168)"><g transform="matrix(1, 0, 0, 1, 547, 0)"><g clip-path="url(#a26700c48f)"><g clip-path="url(#052af45f55)"><g mask="url(#8d6db4d4f2)"><g transform="matrix(1, 0, 0, 1, -0.000000000000113687, 206)"><g clip-path="url(#5a4e0a2aa4)"><g clip-path="url(#5767d2ad1a)"><path fill="#ffffff" d="M 236.25 205.414062 L 236.25 69.289062 L 118.359375 1.226562 L 0.472656 69.289062 L 0.472656 205.414062 L 118.359375 273.480469 Z M 236.25 205.414062 " fill-opacity="1" fill-rule="nonzero"/></g></g></g></g></g><g mask="url(#70f4cbf51b)"><g transform="matrix(1, 0, 0, 1, 62, 105)"><g clip-path="url(#1ed6563591)"><g clip-path="url(#dcd88945b0)"><path fill="#ffffff" d="M 237.175781 205.738281 L 237.175781 69.609375 L 119.285156 1.546875 L 1.394531 69.609375 L 1.394531 205.738281 L 119.285156 273.800781 Z M 237.175781 205.738281 " fill-opacity="1" fill-rule="nonzero"/></g></g></g></g><g clip-path="url(#aa6feb6d2b)"><g mask="url(#9dbbac39aa)"><g transform="matrix(1, 0, 0, 1, 169, 0)"><g clip-path="url(#4bc6a4b77e)"><g clip-path="url(#5b98be402c)"><path fill="#ffffff" d="M 236.621094 204.289062 L 236.621094 68.164062 L 118.734375 0.0976562 L 0.84375 68.164062 L 0.84375 204.289062 L 118.734375 272.351562 Z M 236.621094 204.289062 " fill-opacity="1" fill-rule="nonzero"/></g></g></g></g></g><g mask="url(#f91256b97d)"><g transform="matrix(1, 0, 0, 1, 206, 76)"><g clip-path="url(#0244ef653c)"><g clip-path="url(#cf13d87cc4)"><path fill="#ffffff" d="M 133.550781 115.652344 L 133.550781 39.199219 L 67.34375 0.972656 L 1.136719 39.199219 L 1.136719 115.652344 L 67.34375 153.878906 Z M 133.550781 115.652344 " fill-opacity="1" fill-rule="nonzero"/></g></g></g></g></g></g></g></g><g clip-path="url(#a36b1e9df0)"><g mask="url(#6c2a96bf23)"><g transform="matrix(1, 0, 0, 1, 1023, 0)"><g clip-path="url(#7d7daceb89)"><g clip-path="url(#2b89786a3f)"><g mask="url(#1a63842659)"><g transform="matrix(1, 0, 0, 1, -0.000000000000227374, 11)"><g clip-path="url(#a9e3aba71f)"><g clip-path="url(#deb8c2ea74)"><path fill="#ffffff" d="M 235.972656 205.570312 L 235.972656 69.441406 L 118.085938 1.378906 L 0.195312 69.441406 L 0.195312 205.570312 L 118.085938 273.632812 Z M 235.972656 205.570312 " fill-opacity="1" fill-rule="nonzero"/></g></g></g></g></g><g mask="url(#16579cbb9b)"><g transform="matrix(1, 0, 0, 1, 62, 0)"><g clip-path="url(#41e75c46e1)"><g clip-path="url(#e5c92b6f70)"><path fill="#ffffff" d="M 236.898438 115.890625 L 236.898438 -20.234375 L 119.007812 -88.300781 L 1.121094 -20.234375 L 1.121094 115.890625 L 119.007812 183.953125 Z M 236.898438 115.890625 " fill-opacity="1" fill-rule="nonzero"/></g></g></g></g><g clip-path="url(#16a9130239)"><g mask="url(#ae57abc5df)"><g transform="matrix(1, 0, 0, 1, 169, 0)"><g clip-path="url(#32d3caeba7)"><g clip-path="url(#f00b539908)"><path fill="#ffffff" d="M 236.34375 9.441406 L 236.34375 -126.683594 L 118.457031 -194.746094 L 0.566406 -126.683594 L 0.566406 9.441406 L 118.457031 77.507812 Z M 236.34375 9.441406 " fill-opacity="1" fill-rule="nonzero"/></g></g></g></g></g><g mask="url(#c0a21f2ca2)"><g transform="matrix(1, 0, 0, 1, 205, 0)"><g clip-path="url(#41fb046ec3)"><g clip-path="url(#35c3070a9c)"><path fill="#ffffff" d="M 134.273438 -3.195312 L 134.273438 -79.648438 L 68.066406 -117.875 L 1.859375 -79.648438 L 1.859375 -3.195312 L 68.066406 35.03125 Z M 134.273438 -3.195312 " fill-opacity="1" fill-rule="nonzero"/></g></g></g></g></g></g></g></g></svg>