<svg width="1646" height="1112" viewBox="0 0 1646 1112" fill="none" xmlns="http://www.w3.org/2000/svg">
<g filter="url(#filter0_d_1414_3)">
<path d="M134 411C134 391.118 150.118 375 170 375H1210C1229.88 375 1246 391.118 1246 411V702H134V411Z" fill="#966BF2" fill-opacity="0.4" shape-rendering="crispEdges"/>
</g>
<mask id="mask0_1414_3" style="mask-type:luminance" maskUnits="userSpaceOnUse" x="86" y="340" width="346" height="410">
<path d="M86 340H432V750H86V340Z" fill="white"/>
</mask>
<g mask="url(#mask0_1414_3)">
<mask id="mask1_1414_3" style="mask-type:luminance" maskUnits="userSpaceOnUse" x="-356" y="-70" width="1230" height="1230">
<path d="M873.457 -69.5977H-355.343V1159.2H873.457V-69.5977Z" fill="black" fill-opacity="0.5"/>
</mask>
<g mask="url(#mask1_1414_3)">
<mask id="mask2_1414_3" style="mask-type:luminance" maskUnits="userSpaceOnUse" x="85" y="339" width="348" height="412">
<path d="M432.39 339.469H85.7236V750.135H432.39V339.469Z" fill="white"/>
</mask>
<g mask="url(#mask2_1414_3)">
<mask id="mask3_1414_3" style="mask-type:luminance" maskUnits="userSpaceOnUse" x="86" y="516" width="203" height="234">
<path d="M86 516.802H288.391V750H86V516.802Z" fill="white"/>
</mask>
<g mask="url(#mask3_1414_3)">
<path d="M287.401 691.724V575.318L186.718 517.109L86.0361 575.318V691.724L186.718 749.932L287.401 691.724Z" fill="#FFFAE0" fill-opacity="0.2"/>
</g>
<path d="M341.146 605.63V489.219L240.459 431.01L139.776 489.219V605.63L240.459 663.833L341.146 605.63Z" fill="#FFFAE0" fill-opacity="0.2"/>
<mask id="mask4_1414_3" style="mask-type:luminance" maskUnits="userSpaceOnUse" x="229" y="340" width="203" height="233">
<path d="M229.724 340H432V572.802H229.724V340Z" fill="white"/>
</mask>
<g mask="url(#mask4_1414_3)">
<path d="M432.057 514.599V398.188L331.37 339.984L230.688 398.188V514.599L331.37 572.802L432.057 514.599Z" fill="#FFFAE0" fill-opacity="0.2"/>
</g>
<path d="M375.625 503.792V438.412L319.084 405.724L262.542 438.412V503.792L319.084 536.485L375.625 503.792Z" fill="#FFFAE0" fill-opacity="0.2"/>
</g>
</g>
</g>
<mask id="mask5_1414_3" style="mask-type:luminance" maskUnits="userSpaceOnUse" x="548" y="275" width="346" height="410">
<path d="M548 275H894V685H548V275Z" fill="white"/>
</mask>
<g mask="url(#mask5_1414_3)">
<mask id="mask6_1414_3" style="mask-type:luminance" maskUnits="userSpaceOnUse" x="106" y="-135" width="1230" height="1230">
<path d="M1335.46 -134.598H106.657V1094.2H1335.46V-134.598Z" fill="black" fill-opacity="0.5"/>
</mask>
<g mask="url(#mask6_1414_3)">
<mask id="mask7_1414_3" style="mask-type:luminance" maskUnits="userSpaceOnUse" x="547" y="274" width="348" height="412">
<path d="M894.39 274.469H547.724V685.135H894.39V274.469Z" fill="white"/>
</mask>
<g mask="url(#mask7_1414_3)">
<mask id="mask8_1414_3" style="mask-type:luminance" maskUnits="userSpaceOnUse" x="548" y="451" width="203" height="234">
<path d="M548 451.802H750.391V685H548V451.802Z" fill="white"/>
</mask>
<g mask="url(#mask8_1414_3)">
<path d="M749.401 626.724V510.318L648.718 452.109L548.036 510.318V626.724L648.718 684.932L749.401 626.724Z" fill="#FFFAE0" fill-opacity="0.25"/>
</g>
<path d="M803.146 540.63V424.219L702.459 366.01L601.776 424.219V540.63L702.459 598.833L803.146 540.63Z" fill="#FFFAE0" fill-opacity="0.25"/>
<mask id="mask9_1414_3" style="mask-type:luminance" maskUnits="userSpaceOnUse" x="691" y="275" width="203" height="233">
<path d="M691.724 275H894V507.802H691.724V275Z" fill="white"/>
</mask>
<g mask="url(#mask9_1414_3)">
<path d="M894.057 449.599V333.188L793.37 274.984L692.688 333.188V449.599L793.37 507.802L894.057 449.599Z" fill="#FFFAE0" fill-opacity="0.25"/>
</g>
<path d="M837.625 438.792V373.412L781.084 340.724L724.542 373.412V438.792L781.084 471.485L837.625 438.792Z" fill="#FFFAE0" fill-opacity="0.25"/>
</g>
</g>
</g>
<mask id="mask10_1414_3" style="mask-type:luminance" maskUnits="userSpaceOnUse" x="922" y="315" width="346" height="410">
<path d="M922 315H1268V725H922V315Z" fill="white"/>
</mask>
<g mask="url(#mask10_1414_3)">
<mask id="mask11_1414_3" style="mask-type:luminance" maskUnits="userSpaceOnUse" x="480" y="-95" width="1230" height="1230">
<path d="M1709.46 -94.5977H480.657V1134.2H1709.46V-94.5977Z" fill="black" fill-opacity="0.5"/>
</mask>
<g mask="url(#mask11_1414_3)">
<mask id="mask12_1414_3" style="mask-type:luminance" maskUnits="userSpaceOnUse" x="921" y="314" width="348" height="412">
<path d="M1268.39 314.469H921.724V725.135H1268.39V314.469Z" fill="white"/>
</mask>
<g mask="url(#mask12_1414_3)">
<mask id="mask13_1414_3" style="mask-type:luminance" maskUnits="userSpaceOnUse" x="922" y="491" width="203" height="234">
<path d="M922 491.802H1124.39V725H922V491.802Z" fill="white"/>
</mask>
<g mask="url(#mask13_1414_3)">
<path d="M1123.4 666.724V550.318L1022.72 492.109L922.036 550.318V666.724L1022.72 724.932L1123.4 666.724Z" fill="#FFFAE0" fill-opacity="0.2"/>
</g>
<path d="M1177.15 580.63V464.219L1076.46 406.01L975.776 464.219V580.63L1076.46 638.833L1177.15 580.63Z" fill="#FFFAE0" fill-opacity="0.2"/>
<mask id="mask14_1414_3" style="mask-type:luminance" maskUnits="userSpaceOnUse" x="1065" y="315" width="203" height="233">
<path d="M1065.72 315H1268V547.802H1065.72V315Z" fill="white"/>
</mask>
<g mask="url(#mask14_1414_3)">
<path d="M1268.06 489.599V373.188L1167.37 314.984L1066.69 373.188V489.599L1167.37 547.802L1268.06 489.599Z" fill="#FFFAE0" fill-opacity="0.2"/>
</g>
<path d="M1211.63 478.792V413.412L1155.08 380.724L1098.54 413.412V478.792L1155.08 511.485L1211.63 478.792Z" fill="#FFFAE0" fill-opacity="0.2"/>
</g>
</g>
</g>
<defs>
<filter id="filter0_d_1414_3" x="130" y="375" width="1120" height="335" filterUnits="userSpaceOnUse" color-interpolation-filters="sRGB">
<feFlood flood-opacity="0" result="BackgroundImageFix"/>
<feColorMatrix in="SourceAlpha" type="matrix" values="0 0 0 0 0 0 0 0 0 0 0 0 0 0 0 0 0 0 127 0" result="hardAlpha"/>
<feOffset dy="4"/>
<feGaussianBlur stdDeviation="2"/>
<feComposite in2="hardAlpha" operator="out"/>
<feColorMatrix type="matrix" values="0 0 0 0 0 0 0 0 0 0 0 0 0 0 0 0 0 0 0.25 0"/>
<feBlend mode="normal" in2="BackgroundImageFix" result="effect1_dropShadow_1414_3"/>
<feBlend mode="normal" in="SourceGraphic" in2="effect1_dropShadow_1414_3" result="shape"/>
</filter>
</defs>
</svg>
