<svg width="547" height="547" viewBox="0 0 547 547" fill="none" xmlns="http://www.w3.org/2000/svg">
<path d="M359.363 327.773C372.24 320.892 384.324 314.43 396.413 307.977C386.252 307.792 366.423 318.627 359.363 327.773ZM409.746 143.982C404.956 141.294 399.932 139.409 394.343 139.456C388.389 139.504 387.102 140.625 386.247 146.66C386.019 148.246 385.943 149.855 385.796 151.503C385.924 153.06 386.024 154.66 386.19 156.261C387.434 168.502 389.111 169.033 401.641 169.204C407.586 169.285 410.022 166.749 410.454 160.857C410.763 156.669 410.359 152.448 411.921 148.388C412.695 146.379 411.494 144.964 409.746 143.982ZM172.452 159.124C169.309 158.559 166.066 158.544 162.865 158.293C162.861 158.445 162.856 158.606 162.851 158.763C160.244 158.763 157.614 158.563 155.031 158.806C149.888 159.295 148.796 160.396 148.032 165.363C147.695 167.547 147.78 169.826 147.201 171.93C145.482 178.217 148.544 182.367 153.117 185.866C159.014 190.372 170.6 188.891 173.582 183.022C176.232 177.808 177.651 172.087 178.079 166.256C178.406 161.887 176.754 159.907 172.452 159.124ZM272.436 257.983C266.791 258.476 261.434 255.917 256.164 256.515C254.393 256.515 252.987 256.506 251.591 256.52C250.988 256.525 250.385 256.549 249.792 256.625C245.499 257.18 245.058 257.641 245.661 261.924C246.99 271.297 250.319 280.086 253.766 288.837C254.488 290.679 255.703 291.866 257.688 292.08C261.468 292.484 265.233 292.863 269.036 292.07C270.551 291.757 271.771 291.306 272.033 289.673C273.571 279.981 274.407 270.228 274.35 260.414C274.34 259.26 274.108 257.835 272.436 257.983ZM315.342 256.796C308.219 257.665 300.983 257.517 294.012 259.853C290.983 260.87 289.691 262.071 290.133 265.333C291.187 273.063 292.726 280.732 293.12 288.547C293.234 290.698 294.582 291.862 296.453 292.265C300.783 293.205 305.199 293.818 309.511 292.346C313.067 291.135 315.631 288.979 316.514 284.896C318.171 277.251 319.42 269.559 320.232 261.791C320.712 257.218 320.061 256.629 315.342 256.796ZM298.704 97.4723C292.749 103.033 285.703 106.195 277.503 106.238C271.648 106.266 265.955 104.87 260.333 103.351C259.008 102.995 257.731 102.244 256.61 101.432C253.529 99.2007 253.339 97.2634 256.715 95.6537C261.321 93.46 261.658 89.6899 261.605 85.6396C261.567 82.634 258.794 80.9341 257.403 77.6863C252.009 81.1763 247.014 82.8239 242.071 78.2513C239.08 75.4879 237.855 70.8535 239.208 67.8432C240.851 64.168 244.198 63.0332 251.34 63.7407C252.664 61.8841 251.772 59.8898 251.686 57.943C251.444 52.6962 253.087 50.1416 258.063 48.3943C262.769 46.7371 267.659 46.8416 272.341 48.0429C282.156 50.5642 291.344 49.928 300.152 44.5197C303.955 42.1883 305.028 42.6584 305.432 47.3306C306.467 59.5194 307.906 71.9029 298.656 82.1924C296.833 84.2199 296.576 91.8931 298.461 92.7953C302.156 94.5521 300.309 95.9766 298.704 97.4723Z" fill="#CC6E53"/>
<mask id="mask0_709_137" style="mask-type:luminance" maskUnits="userSpaceOnUse" x="131" y="65" width="297" height="406">
<path d="M131.28 65.6401H427.049V470.42H131.28V65.6401Z" fill="white"/>
</mask>
<g mask="url(#mask0_709_137)">
<path d="M262.949 72.5724C262.726 72.4585 262.579 71.8744 262.664 71.58C263.101 69.9656 265.133 69.4956 268.466 70.1936C268.386 70.5544 268.424 71.0767 268.196 71.2572C266.648 72.468 265.062 73.7073 262.949 72.5724ZM293.115 68.2373C293.224 66.1243 295.869 66.6513 297.597 66.6846C298.191 66.6988 298.784 66.8793 299.368 67.0217C300.19 67.2211 300.921 67.6532 300.864 68.5696C300.807 69.4956 299.971 69.8232 299.183 70.0131C298.604 70.1461 297.996 70.1746 297.417 70.2505C295.774 69.8374 293.001 70.4167 293.115 68.2373ZM157.547 191.654C157.675 189.323 159.062 188.611 161.113 188.478C162.514 188.387 163.9 188.06 165.301 188.026C172.314 187.879 175.377 183.136 176.849 177.357C177.893 173.226 178.843 168.962 177.286 164.447C176.512 162.182 175.519 161.052 173.511 160.43C170.239 159.404 166.93 158.73 163.463 158.682C159.389 158.63 159.375 158.492 159.047 154.238C158.872 152.035 158.634 149.827 158.639 147.623C158.72 128.54 158.824 109.452 158.986 90.3689C159.014 87.3918 158.91 84.3576 159.874 81.6938C172.119 84.1534 184.161 86.4896 196.16 89.0109C211.093 92.1495 225.927 95.6965 240.528 100.179C248.386 102.596 256.339 104.704 264.236 107.016C269.706 108.612 274.753 110.938 278.538 115.449C279.141 116.166 279.834 117.021 281.572 117.135C282.863 112.22 287.127 110.169 291.391 107.857C300.607 102.852 310.256 98.8778 320.094 95.4021C331.656 91.3186 342.872 86.4279 354.263 81.9265C368.84 76.1669 384.011 72.1926 398.944 67.5108C403.412 66.1148 405.031 67.2781 406.48 71.8412C407.102 73.788 407.168 75.787 407.14 77.805C406.969 87.8334 406.788 97.8664 406.646 107.895C406.508 117.529 406.446 127.168 406.299 136.802C406.214 142.291 406.014 142.415 400.862 141.128C398.327 140.492 395.81 139.708 393.17 139.822C389.11 139.993 387.71 141.555 386.822 145.572C385.863 149.917 386.475 154.285 386.428 158.597C386.352 165.14 390.677 168.416 397.534 168.164C398.132 168.141 398.745 167.956 399.329 168.013C401.1 168.179 403.127 168.017 403.683 170.353C404.234 172.671 403.056 173.981 401.109 175.178C389.196 182.476 376.081 187.015 363.118 191.849C340.745 200.206 318.58 209.095 296.078 217.1C291.534 218.714 287.635 218.999 283.443 216.668C278.272 213.795 273.238 213.15 268.599 217.917C266.629 219.949 264.041 219.075 261.748 218.591C253.904 216.948 246.254 214.527 238.391 212.888C214.222 207.836 190.111 202.494 165.98 197.257C164.218 196.877 162.48 196.36 160.719 195.98C158.35 195.472 157.414 194.024 157.547 191.654ZM254.454 390.222C255.869 384.258 255.803 384.092 250.086 380.811C252.413 378.199 251.895 375.402 250.086 372.829C252.023 371.428 253.923 371.841 255.632 372.003C257.878 372.202 259.108 373.147 258.172 376.053C256.639 380.801 257.55 381.732 262.469 382.924C265.58 383.683 268.994 383.797 270.385 387.914C271.14 390.146 273.761 390.241 276.159 389.799C278.908 389.286 278.941 389.457 281.277 392.097C276.51 393.261 262.199 392.259 254.454 390.222ZM246.615 338.366C246.534 336.543 248.244 337.041 249.279 337.103C257.147 337.597 265.01 338.162 272.878 338.703C264.991 342.573 257.047 344.961 248.377 342.231C246.088 341.514 246.677 339.724 246.615 338.366ZM425.059 427.914C421.831 425.587 418.512 425.881 414.898 427.073C384.975 436.949 355.008 446.726 325.066 456.56C319.871 458.264 319.762 458.231 317.412 453.288C312.611 443.212 315.004 433.274 318.038 423.388C319.04 420.136 321.429 418.654 324.942 417.619C356.523 408.298 388.004 398.65 419.504 389.082C420.648 388.731 421.821 388.356 422.842 387.757C424.134 387.007 424.414 385.616 423.084 384.889C416.94 381.537 410.686 378.384 404.485 375.132C402.002 373.836 399.96 374.809 397.728 376.02C388.17 381.186 379.187 387.259 370.06 393.118C367.715 394.623 365.526 396.452 362.477 396.471C349.011 396.57 335.545 396.594 322.117 395.331C320.346 395.16 319.458 394.837 319.159 392.605C318.713 389.334 318.67 385.82 316.381 382.957C315.36 381.675 316.21 380.293 317.036 379.087C318.167 377.42 318.594 374.928 316.965 374.215C313.257 372.587 311.885 368.413 308.067 367.041C305.536 366.124 305.304 363.855 307.355 362.112C308.414 361.21 309.686 360.559 310.812 359.733C313.846 357.501 310.019 354.012 311.851 352.169C313.793 350.218 316.989 349.259 316.106 345.75C315.441 343.1 316.885 342.492 318.784 342.203C320.156 341.998 321.595 342.093 322.996 342.179C331.419 342.701 339.852 343.143 348.261 343.855C353.451 344.301 358.441 344.947 360.407 338.361C360.664 337.502 361.713 336.87 362.425 336.158C366.594 332.003 371.485 328.869 376.622 326.068C387.581 320.085 399.067 315.313 410.843 311.211C412.177 310.741 413.616 310.479 414.433 309.202C415.307 307.825 415.463 306.51 413.478 305.969C412.714 305.769 411.888 305.774 411.085 305.707C389.861 303.846 368.626 302.127 347.34 301.111C323.038 299.953 298.708 300 274.392 299.397C254.706 298.913 235.005 298.424 215.381 296.515C209.218 295.917 203.092 295.546 196.896 297.521C176.801 303.936 156.93 310.95 137.234 318.476C136.113 318.903 134.983 319.387 133.996 320.047C132.315 321.173 131.816 322.891 132.244 324.81C132.652 326.638 134.091 327.326 135.776 327.597C136.564 327.725 137.376 327.73 138.174 327.82C146.702 328.727 155.23 329.639 163.886 330.565C163.753 332.697 161.583 334.159 162.78 336.381C163.687 338.057 166.63 337.744 166.635 340.598C161.664 340.593 157.224 341.362 155.258 346.675C154.803 347.91 153.198 347.758 152.172 348.328C149.741 349.676 148.597 351.528 150.145 354.263C150.619 355.099 151.54 355.745 151.208 356.913C150.054 360.982 152.324 362.373 155.833 362.82C156.669 362.924 157.362 363.285 157.409 364.277C157.471 365.479 156.754 366.186 155.7 366.385C153.929 366.713 152.12 366.86 150.325 367.098C147.842 367.435 146.047 368.722 146.118 371.338C146.18 373.65 147.937 374.828 150.121 375.132C151.507 375.326 152.927 375.27 154.332 375.317C155.705 375.36 157.386 374.918 158.117 376.471C159.869 380.193 163.084 380.151 166.346 379.795C170.106 379.382 171.934 381.157 172.803 385.355C167.523 385.621 162.803 384.372 158.012 384.177C153.183 383.983 150.596 385.915 148.791 390.094C142.215 405.288 142.001 420.416 148.578 435.686C150.235 439.542 152.533 441.593 156.859 442.367C205.082 451.038 253.291 459.789 301.443 468.829C310.213 470.472 318.456 471.384 326.158 465.828C326.633 465.491 327.255 465.33 327.829 465.164C349.253 458.972 370.132 451.142 391.247 444.02C402.453 440.245 413.573 436.209 424.741 432.329C425.757 431.978 426.683 431.527 426.973 430.52C427.415 428.972 426.004 428.593 425.059 427.914Z" fill="#61AF3F"/>
</g>
<mask id="mask1_709_137" style="mask-type:luminance" maskUnits="userSpaceOnUse" x="120" y="105" width="304" height="422">
<path d="M120.003 105.388H423.013V526.943H120.003V105.388Z" fill="white"/>
</mask>
<g mask="url(#mask1_709_137)">
<path d="M266.786 129.096C273.68 131.28 280.689 131.522 287.512 129.319C290.874 128.236 294.568 126.199 295.076 122.273C295.651 117.743 295.347 113.056 294.449 108.488C293.937 105.882 292.294 105.207 290.015 106.119C287.602 107.097 285.148 108.123 283.225 109.932C281.496 111.561 279.844 111.656 277.816 110.53C274.621 108.754 271.131 107.942 267.475 107.634C264.455 107.387 262.873 108.906 262.484 111.575C262.166 113.731 262.418 115.972 262.418 118.18C262.384 118.18 262.346 118.18 262.308 118.18C262.308 119.58 262.456 121.005 262.285 122.391C261.829 125.986 263.462 128.042 266.786 129.096ZM263.125 132.467C262.199 135.212 262.712 138.027 262.764 140.796C263.006 153.91 264.212 155.178 277.527 156.379C280.114 156.612 282.735 156.598 285.337 156.484C288.391 156.351 291.202 155.311 293.856 153.787C296.183 152.453 297.303 150.667 297.08 147.894C296.681 142.899 296.501 137.88 296.183 132.876C296.121 131.897 296.016 130.862 295.048 130.236C285.67 134.86 281.605 136.437 263.125 132.467ZM264.018 156.93C264.018 164.551 264.004 171.151 264.032 177.751C264.037 179.375 264.132 180.985 265.965 181.792C270.181 183.653 274.231 186.07 278.619 187.3C284.188 188.858 289.749 187.538 294.981 185.092C297.878 183.739 298.884 181.616 298.538 178.312C297.968 172.937 297.939 167.505 297.635 162.096C297.555 160.596 297.873 158.967 296.572 157.177C285.86 162.984 275.162 161.004 264.018 156.93ZM298.011 188.411C286.881 194.028 276.074 192.813 265.561 185.287C265.561 195.88 265.385 205.472 265.646 215.049C265.765 219.56 268.666 221.583 272.503 219.55C278.434 216.407 284.084 217.518 289.967 219.023C295.997 220.566 298.937 218.776 299.15 212.746C299.388 206.151 300.048 199.541 299.364 192.936C299.212 191.464 299.791 189.717 298.011 188.411ZM291.786 296.638C291.634 298.025 291.629 299.43 291.605 299.863C291.453 309.036 292.788 310.294 300.907 309.601C302.92 309.426 304.872 309.592 306.833 310.176C310.859 311.382 314.914 312.464 318.979 313.519C325.465 315.195 331.984 315.755 338.537 313.841C342.806 312.597 346.215 308.685 342.644 303.148C340.085 299.174 336.927 295.869 332.787 293.704C329.254 291.857 325.456 290.518 321.823 288.861C318.723 287.441 315.831 287.446 312.612 288.866C308.196 290.812 303.471 291.876 298.576 291.368C292.626 290.751 292.403 290.86 291.786 296.638ZM230.424 323.143C235.994 324.311 241.079 323.471 246.107 320.897C250.889 318.447 255.343 315.204 260.846 314.354C270.542 312.859 274.939 306.705 273.244 296.995C272.247 291.282 272.061 291.14 266.126 291.292C265.129 291.316 264.127 291.292 263.125 291.292C259.208 291.487 255.086 289.92 251.416 292.474C246.967 295.57 242.109 297.939 237.333 300.461C233.054 302.716 229.275 305.703 226.055 309.335C223.919 311.752 221.521 314.278 222.96 317.835C224.256 321.035 227.029 322.436 230.424 323.143ZM135.691 383.209C148.027 384.985 160.434 385.801 172.865 386.514C173.364 386.542 173.616 386.233 173.601 385.303C163.62 364.107 165.686 343.319 179.033 322.749C171.849 322.308 165.496 321.909 159.152 321.538C152.733 321.163 146.256 321.225 139.927 320.294C136.503 319.786 133.944 320.437 131.679 322.569C126.921 327.051 123.279 332.317 121.684 338.751C118.108 353.181 120.103 366.614 128.944 378.85C130.706 381.281 132.576 382.758 135.691 383.209ZM181.545 382.425C183.52 386.043 185.956 387.952 190.477 388.123C202.908 388.589 215.31 389.723 227.722 390.554C229.052 390.64 230.481 391.281 231.806 390.132C219.959 368.532 223.852 347.796 235.965 326.771C219.584 325.56 203.995 324.444 188.411 323.224C185.961 323.034 184.731 324.316 183.663 326.144C181.023 330.674 179 335.493 177.514 340.498C173.198 354.99 174.219 369.007 181.545 382.425ZM310.413 333.76C307.232 336.961 305.931 342.184 304.245 346.685C299.008 360.655 299.35 374.201 307.915 386.965C309.145 388.802 310.451 390.63 311.353 392.629C312.678 395.559 314.71 396.613 317.915 396.76C330.351 397.33 342.815 397.838 355.194 399.068C361.025 399.652 365.721 398.313 370.45 395.193C384.866 385.706 398.588 375.146 413.845 366.946C415.198 366.219 417.069 365.503 416.874 363.584C416.655 361.41 414.533 361.894 413.08 361.538C411.722 361.201 410.374 360.863 409.001 360.607C408.716 360.56 408.36 360.887 408.042 361.039C407.762 362.625 409.775 363.185 409.633 365.146C396.675 372.316 384.277 380.844 371.685 389.063C369.51 390.483 367.055 391.471 364.795 392.767C362.668 393.987 361.281 393.94 360.113 391.362C356.428 383.218 353.779 374.885 354.268 365.802C354.71 357.715 356.561 349.933 359.097 342.283C359.572 340.854 360.897 339.52 359.952 337.739C357.739 336.904 355.569 336.016 353.095 335.845C343.281 335.152 333.485 334.083 323.661 333.632C319.183 333.428 313.77 330.38 310.413 333.76ZM302.711 333.181C301.714 331.761 300.698 331.662 299.71 331.59C295.309 331.244 290.902 330.949 286.506 330.612C273.505 329.615 260.509 328.552 247.503 327.63C242.475 327.269 242.437 327.402 240.333 332.027C237.228 338.822 235.044 345.93 234.023 353.299C232.404 365.013 232.917 376.509 238.814 387.24C240.371 390.08 242.143 391.68 245.713 391.879C263.135 392.848 280.537 394.154 297.949 395.307C299.065 395.379 300.333 395.901 301.752 394.22C287.754 373.826 289.25 353.152 302.711 333.181ZM418.379 488.198C412.13 491.393 405.986 494.831 399.975 498.463C387.767 505.828 375.327 512.889 363.655 521.041C355.588 526.673 347.274 528.107 338.114 526.464C310.218 521.455 282.037 518.549 253.961 514.888C227.072 511.383 200.144 508.188 173.245 504.793C162.68 503.459 152.144 501.939 141.593 500.538C139.604 500.268 137.529 499.712 135.62 500.035C131.589 500.705 129.357 498.862 127.225 495.757C124.162 491.289 122.33 486.564 122.396 481.147C122.482 474.936 121.897 468.692 123.901 462.609C125.193 458.682 127.201 455.487 130.554 452.866C136.479 448.236 143.165 445.06 149.784 441.679C151.959 440.568 154.086 440.9 156.242 441.261C200.609 448.687 244.977 456.128 289.336 463.587C296.866 464.85 304.411 466.014 311.876 467.59C315.176 468.288 318.086 468.013 321.22 466.94C349.515 457.258 377.843 447.676 406.162 438.056C409.956 436.764 413.731 435.397 417.51 434.067C419.277 433.445 420.758 433.749 421.413 435.644C422.045 437.458 422.163 439.253 419.875 440.131C418.564 440.63 417.24 441.109 415.915 441.579C394.021 449.381 373.693 460.221 354.429 473.155C351.433 475.168 349.42 477.604 348.404 481.047C345.569 490.662 343.865 500.239 348.523 509.817C351.837 516.621 353.584 517.343 360.118 513.568C375.08 504.94 389.942 496.137 404.832 487.386C410.35 484.138 416.033 481.227 422.296 478.397C423.982 483.354 422.439 486.123 418.379 488.198Z" fill="#A072FF"/>
</g>
<path d="M245.409 68.7739C244.521 74.3816 245.879 75.7396 253.054 75.7966C249.564 73.5697 247.062 71.9458 245.409 68.7739ZM332.469 295.489C330.375 297.93 328.765 300.617 328.675 303.96C328.675 304.274 328.993 304.706 329.283 304.9C329.838 305.28 330.598 305.119 330.845 304.615C332.151 301.961 333.347 299.259 334.539 296.667C334.349 296.183 334.301 295.727 334.05 295.508C333.585 295.105 332.887 295 332.469 295.489ZM239.265 299.05C241.843 300.081 243.548 300.608 245.101 301.42C246.663 302.246 248.078 303.357 249.55 304.35C250.243 304.815 250.965 305.033 251.696 304.478C252.289 304.022 252.085 303.4 251.829 302.887C250.058 299.392 244.526 297.398 239.265 299.05ZM320.327 300.475C320.08 300.988 319.976 301.762 320.66 302.037C321.139 302.232 322.079 302.289 322.279 302.013C324.591 298.856 327.549 296.13 328.708 292.004C324.61 293.566 322.141 296.714 320.327 300.475ZM280.732 70.2221C282.664 69.5526 285.418 70.2506 286.852 67.753C287.294 66.9886 286.833 66.2099 286.192 65.6685C283.918 63.7313 281.672 65.0608 279.469 65.8442C278.139 66.3143 276.563 67.1025 276.947 68.6932C277.318 70.2079 279.036 70.2839 280.732 70.2221ZM239.123 305.608C236.981 304.454 234.916 302.55 231.107 304.445C235.267 306.956 238.591 308.974 241.924 310.988C242.256 311.192 242.589 311.529 242.935 311.548C243.467 311.581 244.108 311.534 244.536 311.258C245.039 310.931 245.177 310.266 244.806 309.696C243.434 307.616 241.179 306.719 239.123 305.608ZM295.594 61.6563C296.244 60.3647 296.496 59.021 296.406 57.606C296.334 56.4142 296.287 54.966 294.696 55.0134C293.538 55.0467 293.409 56.2955 293.239 57.2974C293.011 58.5841 293.466 60.4645 291.643 60.7066C289.91 60.9393 289.72 59.0305 289.027 57.9051C288.623 57.2404 288.291 56.5044 286.786 56.3619C285.845 58.5984 286.586 60.4597 287.655 62.1311C289.948 65.7113 293.704 65.4264 295.594 61.6563ZM273.98 60.3268C274.222 59.5765 274.473 58.7978 274.521 58.0143C274.597 56.8035 274.478 55.3743 272.954 55.2936C271.829 55.2319 271.567 56.4664 271.382 57.4683C271.059 59.1872 270.998 61.6895 268.913 61.6278C266.643 61.5613 267.479 58.8026 266.795 57.2879C266.653 56.9697 266.302 56.7371 265.661 56.0628C263.676 60.3932 264.602 64.1966 267.65 65.2317C270.171 66.0911 272.754 64.0969 273.98 60.3268ZM292.165 73.4652C290.527 74.0635 288.918 74.7615 287.241 75.2411C282.802 76.5183 278.258 76.3949 274.725 73.4035C271.316 70.5118 271.192 73.2943 269.996 74.9229C277.754 77.4205 285.356 82.145 292.165 73.4652ZM267.479 88.8638C274.193 91.5276 280.841 90.991 284.853 87.5343C279.943 86.7034 275.148 88.0471 270.399 86.6416C265.447 85.1744 261.919 81.8696 257.997 78.845C258.7 84.5239 262.831 87.0215 267.479 88.8638ZM389.153 162.357C393.622 161.897 397.558 164.504 402.173 162.571C399.168 160.71 396.276 160.8 393.693 159.955C391.969 159.395 390.198 159 388.84 157.704C388.047 156.94 387.753 155.924 388.27 154.969C388.712 154.148 389.624 154.504 390.412 154.561C393.987 154.817 397.572 155.017 401.157 155.235C399.258 153.877 397.206 153.355 395.141 152.87C393.389 152.462 391.599 152.163 389.861 151.693C388.55 151.341 387.791 150.397 388.152 148.996C388.493 147.681 389.685 147.98 390.625 148.06C394.025 148.364 397.411 149.219 401.167 148.583C396.442 145.401 389.733 148.279 386.134 141.964C385.72 148.692 385.198 154.713 386.68 160.843C388.555 168.549 395.587 171.64 402.852 167.576C398.474 165.952 392.577 168.369 389.153 162.357ZM151.878 167.291C154.034 168.511 155.463 168.35 156.835 168.35C162.443 168.35 168.06 168.986 173.663 168.179C174.741 168.022 175.724 167.903 175.885 169.285C176.009 170.363 175.486 171.322 174.484 171.697C172.405 172.467 170.254 172.965 168.022 173.003C164.209 173.07 160.396 173.108 156.588 173.212C155.325 173.25 153.905 172.918 152.301 174.579C159.869 176.897 167.144 175.154 175.292 175.881C169.385 181.194 162.186 177.675 156.522 181.146C161.745 182.576 166.669 181.407 172.125 182.191C168.302 186.066 163.074 184.166 159.423 187.314C163.559 188.672 167.072 187.908 170.553 186.863C172.106 186.403 173.796 185.743 174.342 184.142C176.555 177.732 180.149 171.446 176.697 164.138C169.119 167.989 160.368 163.768 151.878 167.291ZM249.374 66.3143C250.077 66.414 250.656 67.2497 251.345 67.6533C254.298 69.4007 255.157 69.092 255.713 65.7635C256.269 62.4017 256.501 58.983 256.948 55.5975C257.346 52.5728 258.795 50.3079 261.924 49.5007C262.574 49.3393 263.657 49.0069 263.291 50.4124C262.655 52.8815 263.795 52.777 265.442 51.9556C271.074 49.1541 276.586 49.4722 282.023 52.5016C282.545 52.7913 283.115 53.0097 283.666 53.2471C288.229 55.1986 292.621 54.852 296.895 52.3354C298.058 51.6564 298.998 50.3839 300.651 50.7068C301.529 52.1502 301.097 53.7931 301.32 55.3316C301.548 56.9222 301.648 58.5414 302.502 59.9611C303.272 61.2432 304.378 62.2118 305.935 61.8699C307.564 61.5091 307.141 59.9944 307.084 58.8928C306.776 52.6773 306.681 46.4333 305.912 40.2701C305.518 37.1362 305.37 34.4202 307.16 31.69C308.528 29.6007 308.794 27.1554 308.362 24.7053C307.668 20.769 305.29 19.6579 301.971 21.994C294.183 27.483 285.499 29.1449 276.225 28.4137C271.192 28.0148 266.121 27.7109 261.188 28.6036C248.496 30.9018 243.315 35.4648 242.66 46.9082C242.48 50.1085 242.48 53.3421 242.717 56.5329C243.045 60.982 243.505 65.4976 249.374 66.3143ZM324.53 257.745C312.991 256.805 301.705 258.035 290.608 261.302C285.527 262.797 284.639 262.37 283.998 257.019C283.091 249.46 282.669 241.839 281.947 234.251C281.648 231.108 281.116 227.978 280.684 224.84C280.333 224.887 279.986 224.93 279.635 224.978C279.136 233.382 278.633 241.782 278.134 250.181C277.712 257.327 275.836 259.36 268.723 258.253C258.652 256.691 248.747 257.308 238.766 258.662C233.88 259.322 233.615 258.956 233.529 254.089C233.32 241.634 234.108 229.218 234.901 216.796C235.191 212.257 235.343 212.096 240.039 213.002C247.912 214.527 255.765 216.136 263.557 218.031C266.558 218.762 269.274 219.066 272.351 218.287C277.997 216.849 283.785 216.098 289.654 216.924C292.916 217.39 296.026 216.758 299.079 215.576C305.062 213.254 311.073 211.022 317.075 208.748C319.496 207.832 321.833 206.649 324.43 206.521C325.978 207.851 325.479 209.574 325.622 211.075C326.961 224.854 328.247 238.634 329.52 252.418C330 257.655 329.572 258.154 324.53 257.745Z" fill="#4A2218"/>
<path d="M324.891 157.894C324.349 157.229 324.435 156.436 324.781 155.648C326.329 152.13 333.072 149.556 336.771 151.099C341.011 152.861 342.393 157.543 339.981 162.3C339.254 163.72 338.252 164.997 337.379 166.341C336.548 167.614 335.721 168.891 334.354 170.98C338.328 169.969 341.358 169.114 344.43 168.445C345.764 168.155 347.397 167.918 347.948 169.746C348.48 171.503 347.146 172.343 345.849 172.894C340.142 175.349 334.335 177.557 328.257 178.919C325.926 179.442 325.019 178.06 325.175 175.776C325.318 173.549 326.809 172.186 328.191 170.752C330.707 168.136 333.039 165.363 334.454 161.997C335.237 160.145 335.85 157.946 333.889 156.493C332.231 155.263 330.465 156.052 328.96 157.262C328.495 157.642 328.081 158.108 327.569 158.393C326.576 158.939 325.603 158.758 324.891 157.894ZM170.79 117.059C169.888 116.38 169.865 115.411 170.221 114.367C171.574 110.364 177.106 106.399 181.346 106.437C183.43 106.456 185.368 106.978 186.65 108.716C188.663 111.447 190.553 114.219 193.122 116.522C194.574 117.828 193.568 119.063 192.025 119.647C189.404 120.63 185.804 119.314 183.502 116.622C179.409 111.85 179.404 111.845 174.337 115.786C174.019 116.033 173.749 116.332 173.449 116.594C172.656 117.301 171.75 117.781 170.79 117.059ZM375.037 156.113C376.642 153.132 376.058 151.788 372.63 151.346C371.647 151.223 370.635 151.346 369.633 151.318C368.394 151.28 367.046 151.085 366.656 149.774C366.238 148.331 367.473 147.571 368.584 147.139C371.072 146.166 372.53 144.518 372.672 141.788C372.786 139.741 371.599 138.929 369.681 139.689C368.256 140.249 367.62 141.517 366.723 142.571C365.968 143.455 365.004 143.559 364.045 142.975C363.295 142.524 363.157 141.769 363.285 140.9C363.807 137.453 368.024 134.409 371.803 134.789C375.341 135.145 378.028 138.127 377.406 141.935C376.865 145.259 377.145 147.685 379.733 150.197C381.732 152.13 381.238 155.069 379.837 157.495C378.09 160.529 375.103 161.612 371.689 162.291C370.683 161.997 369.505 161.745 368.408 161.318C367.278 160.876 365.987 160.168 366.424 158.772C366.984 156.973 368.28 158.008 369.277 158.488C372.107 159.86 373.712 158.573 375.037 156.113ZM331.928 40.8208C332.939 36.1485 333.689 31.6757 331.904 26.7944C330.38 22.6255 335.118 17.844 339.943 17.7822C344.377 17.7253 349.677 23.1668 349.52 27.6254C349.529 30.0565 348.357 32.103 346.367 33.0717C342.07 35.1751 339.914 38.8076 338.186 42.9243C337.882 43.6555 337.407 44.3155 337.003 45.004C336.225 46.3241 335.247 47.1882 333.589 46.4808C332.127 45.8635 331.424 44.7714 331.576 43.1902C331.657 42.3925 331.757 41.5995 331.928 40.8208ZM204.968 122.42C204.232 117.41 205.799 113.863 209.076 112.748C211.597 111.888 213.857 112.434 215.576 114.509C216.592 115.729 217.404 117.13 218.297 118.45C219.911 120.834 221.83 121.399 224.413 119.799C228.273 117.42 232.409 116.299 237.024 117.154C241.008 117.895 244.26 119.5 245.96 123.384C246.834 125.378 247.769 127.049 250.376 125.634C251.544 124.998 252.741 124.998 253.586 126.161C254.493 127.415 254.308 128.811 253.728 130.155C251.592 135.083 245.31 136.099 241.877 131.973C240.884 130.777 240.272 129.224 239.645 127.771C237.565 122.961 234.512 121.575 229.707 123.407C228.781 123.763 227.931 124.314 227.034 124.756C220.785 127.838 216.63 126.722 212.665 120.896C212.005 119.932 211.768 118.612 210.415 118.18C208.183 118.802 207.623 121.527 204.968 122.42ZM250.006 103.27C248.662 102.9 247.304 102.615 246.074 101.242C248.486 99.7848 250.856 98.3888 253.187 96.9311C254.36 96.1951 255.438 96.2758 256.535 97.0308C257.693 97.8285 258.823 98.6737 260.025 99.3907C268.234 104.3 276.838 105.768 285.869 101.926C290.437 99.9794 295.413 98.6642 298.775 94.5759C299.535 93.6453 300.475 93.669 301.477 93.8637C305.385 94.6282 309.283 95.4116 313.186 96.1856C313.281 96.6747 313.371 97.1637 313.462 97.6528C306.572 100.635 299.777 103.892 292.74 106.485C289.549 107.657 286.24 108.46 283.396 110.383C281.791 111.461 280.328 111.722 278.362 111.147C268.942 108.403 259.464 105.863 250.006 103.27ZM248.301 281.04C245.875 273.847 246.91 272.403 254.574 273.158C259.792 273.671 264.972 273.657 270.195 273.362C273.514 273.168 274.549 274.326 274.341 277.579C274.222 279.374 273.88 281.164 273.5 282.925C271.639 291.586 273.139 291.306 262.622 291.771C252.556 291.415 251.558 290.67 248.301 281.04ZM166.859 137.481C164.95 136.014 166.075 133.768 167.153 132.025C169.86 127.662 175.358 127.268 178.896 131.285C180.32 132.894 181.346 134.87 182.528 136.646C197.575 129.461 200.776 130.292 205.614 142.685C208.42 141.693 210.719 139.632 213.691 138.925C219.788 137.472 223.102 138.654 226.421 143.929C226.848 144.608 227.105 145.406 227.594 146.028C228.752 147.514 231.108 148.749 228.653 150.919C226.602 152.718 223.411 152.533 221.583 150.468C220.671 149.442 220.12 148.089 219.432 146.873C217.352 143.155 215.975 142.69 212.257 144.646C211.203 145.207 210.277 146.009 209.308 146.721C204.935 149.941 200.98 148.915 198.891 143.958C198.425 142.856 198.245 141.641 197.879 140.492C196.721 136.888 195.13 136.123 191.654 137.766C190.225 138.436 189 139.537 187.694 140.468C182.163 144.437 178.364 143.663 174.798 137.79C174.181 136.774 173.872 135.553 172.486 134.718C171.835 135.05 171.431 135.164 171.147 135.411C169.879 136.532 168.839 139.02 166.859 137.481ZM246.986 180.406C245.395 181.915 243.823 181.146 242.879 179.774C240.533 176.341 237.959 177.129 235.148 178.929C233.805 179.798 232.485 180.766 231.027 181.393C226.397 183.397 222.784 182.034 220.538 177.557C220.182 176.844 220.011 176.037 219.664 175.315C217.774 171.417 215.12 170.8 211.516 173.435C210.543 174.143 209.717 175.054 208.701 175.676C204.878 177.998 200.339 177.443 197.129 174.304C196.417 173.606 195.838 172.775 195.173 172.02C192.243 168.72 191.792 168.639 188.207 170.805C187.699 171.118 187.286 171.579 186.773 171.882C185.876 172.419 184.917 172.666 183.995 171.93C182.837 171.013 183.065 169.812 183.459 168.658C184.57 165.392 188.796 162.533 192.718 162.552C196.013 162.865 198.705 164.732 201.08 167.381C204.028 170.672 204.118 170.591 207.908 168.16C215.78 163.112 222.437 165.206 226.212 173.934C227.765 177.528 228.04 177.675 231.207 175.315C233.32 173.734 235.438 172.272 238.007 171.588C241.71 170.596 245.974 172.571 247.556 175.994C248.287 177.58 248.349 179.119 246.986 180.406ZM319.497 279.896C315.845 289.497 312.037 292.137 301.187 292.246C300.86 292.237 300.062 292.222 299.269 292.146C293.367 291.605 293.372 291.6 292.161 285.632C291.643 283.091 290.964 280.58 290.599 278.016C290.114 274.644 290.855 273.486 294.136 273.13C301.672 272.313 309.231 271.577 316.8 271.126C321.201 270.865 322.146 272.398 320.807 276.553C320.441 277.688 319.924 278.775 319.497 279.896ZM323.219 37.0649C320.19 32.3404 317.63 27.2218 318.761 21.2057C320.46 12.1888 325.299 5.5982 334.164 2.79198C343.053 -0.018996 350.868 1.98002 358.195 8.16701C371.386 19.2969 364.624 37.9244 353.717 43.119C352.279 43.8075 350.802 44.5292 349.259 44.8996C342.53 46.5235 342.521 46.476 339.026 49.4912C338.907 43.2187 339.867 41.8892 345.636 40.3412C354.562 37.9386 360.892 27.8866 358.831 19.3634C356.495 9.66271 345.455 3.60393 335.607 6.2962C323.898 9.49652 319.781 23.3187 325.27 30.7118C326.106 31.8324 326.533 33.2426 327.336 34.3917C330.399 38.7648 330.702 43.1427 328.119 47.9432C326.439 51.0818 327.056 51.7846 330.427 51.4047C332.032 51.2243 333.599 50.8824 335.213 51.267C336.491 51.5709 337.412 52.2594 337.739 53.5509C338.072 54.8709 337.597 56.0865 336.453 56.642C334.401 57.6344 332.668 58.0333 334.577 61.1434C335.911 63.3134 333.309 64.4814 331.282 65.0702C326.6 66.4377 326.6 66.433 326.097 71.9837C323.058 69.8755 322.099 68.0426 322.379 64.6476C322.858 58.8025 323.794 53.1046 325.071 47.3972C325.864 43.855 325.375 40.4362 323.219 37.0649ZM157.001 433.702C157.082 433.246 157.709 432.567 158.127 432.538C160.121 432.42 162.13 432.486 164.129 432.486C173.796 432.866 183.202 435.112 192.718 436.589C225.253 441.664 257.783 446.75 290.309 451.845C294.473 452.495 298.633 453.174 302.768 453.996C304.696 454.376 306.125 455.634 305.874 457.79C305.584 460.249 303.713 460.985 301.51 460.985C300.717 460.985 299.934 460.715 299.141 460.586C294.981 459.907 290.812 459.266 286.658 458.54C251.264 452.372 215.842 446.308 180.353 440.705C174.214 439.737 168.141 438.336 162.063 437.006C160.529 436.669 159.062 435.914 157.652 435.188C157.263 434.984 156.921 434.162 157.001 433.702ZM158.521 423.972C156.698 423.374 154.034 423.189 154.661 420.426C155.164 418.232 157.472 418.654 159.3 418.479C170.425 420.069 181.578 421.518 192.685 423.274C227.186 428.735 261.667 434.305 296.159 439.846C297.341 440.036 298.538 440.235 299.687 440.582C301.624 441.161 302.906 442.358 302.398 444.561C301.966 446.427 300.484 447.153 298.737 446.954C295.352 446.569 291.98 446.033 288.609 445.496C256.302 440.344 223.99 435.221 191.692 429.998C181.588 428.36 171.531 426.446 161.455 424.647C160.468 424.471 159.471 424.286 158.521 423.972ZM155.985 390.193C156.479 388.745 157.761 388.821 158.996 389.02C162.163 389.529 165.325 390.065 168.492 390.564C205.182 396.338 242.033 401.1 278.543 408.009C285.053 409.243 291.629 410.103 298.158 411.185C299.943 411.485 301.743 411.822 303.438 412.41C305.261 413.047 306.591 414.319 306.116 416.508C305.641 418.688 303.927 419.162 301.705 419.21C300.195 418.901 298.438 418.483 296.657 418.184C258.049 411.731 219.432 405.317 180.833 398.807C174.703 397.776 168.62 396.404 162.552 395.046C160.814 394.661 159.138 393.887 157.543 393.08C156.474 392.539 155.501 391.594 155.985 390.193ZM149.575 405.041C149.722 403.151 151.517 403.28 152.832 403.123C154.219 402.961 155.634 403.09 156.432 403.09C171.636 404.571 186.047 407.23 200.5 409.585C231.981 414.718 263.458 419.889 294.939 425.046C296.7 425.33 298.552 425.311 300.067 426.518C301.306 427.505 301.71 428.763 301.296 430.254C300.95 431.517 300.062 432.458 298.77 432.491C296.781 432.553 294.749 432.51 292.788 432.187C252.019 425.468 211.25 418.716 170.491 411.936C166.337 411.242 162.21 410.378 158.098 409.481C156.142 409.058 154.209 408.484 152.329 407.8C151.038 407.335 149.447 406.76 149.575 405.041ZM314.349 157.258C314.478 154.912 315.261 153.018 317.483 151.849C327.398 146.617 337.511 141.878 349.192 138.787C349.914 150.496 351.979 161.303 354.624 171.996C355.056 173.744 354.615 174.769 353.086 175.282C343.741 178.407 335.289 183.563 326.12 187.072C325.005 187.499 323.808 187.77 322.626 187.951C318.879 188.535 316.671 187.348 316.087 183.606C314.72 174.893 313.875 166.113 314.349 157.258ZM348.119 104.001C349.268 103.061 350.493 104.03 350.935 105.26C351.467 106.75 351.799 108.341 352.008 109.913C352.383 112.695 352.573 115.502 352.896 118.293C353.537 123.811 353.565 123.892 358.955 123.051C360.882 122.757 362.15 123.331 362.786 125.017C363.494 126.883 362.003 127.524 360.659 127.966C355.702 129.585 350.721 131.128 345.754 132.7C344.563 133.075 343.319 133.374 342.682 131.912C342.217 130.843 343.1 130.022 343.632 129.229C343.95 128.768 344.548 128.474 345.052 128.16C349.99 125.06 350.137 125.036 349.064 119.528C348.499 116.655 348.812 113.54 347.336 110.953C345.379 110.801 344.653 112.197 343.589 113.018C342.663 113.73 341.899 114.751 339.981 114.338C341.073 109.538 344.71 106.803 348.119 104.001ZM309.791 153.953C308.984 166.071 310.223 178.036 312.873 189.836C313.756 193.739 315.147 194.46 319.007 193.667C324.705 192.499 330.346 191.156 335.603 188.416C340.223 186.004 344.952 183.706 349.847 181.93C362.858 177.2 374.923 170.069 388.617 167.096C386.813 162.495 386.817 162.5 382.886 163.468C377.406 164.826 372.198 166.901 367.079 169.276C364.391 170.52 361.837 172.272 358.185 172.39C356.623 161.28 355.075 150.183 353.475 139.091C353.176 137.002 354.221 136.223 356.034 135.8C362.112 134.381 367.862 131.964 373.769 130.026C377.739 128.725 381.78 127.676 386.509 126.309C386.675 128.825 386.713 130.416 386.898 131.997C387.107 133.782 387.34 135.582 387.767 137.329C388.147 138.853 388.57 140.815 390.744 140.325C392.406 139.95 392.363 138.198 392.287 136.812C392.112 133.398 391.946 129.984 391.561 126.593C390.972 121.404 389.306 120.354 384.329 121.916C381.651 122.757 379.016 123.749 376.367 124.694C374.078 125.511 372.948 124.59 372.701 122.301C372.592 121.304 372.525 120.297 372.387 119.305C371.519 113.137 370.901 106.921 369.681 100.82C368.418 94.5332 365.954 93.0707 359.805 94.7896C350.721 97.3252 341.775 100.369 333.148 104.215C327.118 106.902 326.04 108.712 326.652 115.521C327.26 122.315 327.455 129.172 328.893 135.876C329.582 139.091 328.87 141.08 325.46 142.339C321.529 143.787 317.82 145.876 314.084 147.818C311.643 149.086 309.981 151.08 309.791 153.953ZM417.572 476.512C419.761 480.154 419.561 480.135 416.1 482.324C402.876 490.681 389.021 497.903 375.217 505.234C369.743 508.135 364.591 511.663 359.273 514.864C354.13 517.96 352.896 517.656 349.586 512.604C346.296 507.575 345.337 501.882 344.829 495.966C345.27 490.23 346.4 484.56 347.924 478.953C348.451 477.001 350.123 476.189 351.576 475.154C361.414 468.193 371.718 462.02 382.416 456.489C391.675 451.698 401.015 447.063 410.658 443.098C413.64 441.869 414.115 442.344 413.802 445.553C413.417 449.542 412.643 453.535 412.748 457.509C412.914 464.148 414.053 470.634 417.572 476.512ZM363.665 332.54C376.832 324.701 390.702 318.442 405.141 313.39C405.678 313.205 406.314 313.309 406.879 313.281C408.09 315.081 407.382 316.828 406.884 318.537C403.783 329.23 404.106 339.98 406.437 350.726C407.154 354.021 407.857 357.335 410.744 359.776C413.218 361.87 413.056 363.019 410.383 364.781C406.361 367.435 402.169 369.814 398.104 372.406C388.289 378.679 378.522 385.018 368.708 391.285C367.022 392.359 365.227 393.275 363.442 394.187C361.006 395.426 359.325 394.661 357.995 392.297C349.572 377.311 347.469 361.694 353.233 345.317C355.156 339.857 358.551 335.579 363.665 332.54ZM380.778 399.975C391.347 396.793 401.912 393.607 412.534 390.602C414.476 390.051 416.584 388.47 419.353 390.706C411.546 400.488 412.553 410.616 417.396 420.9C419.785 425.971 419.656 426.731 414.291 428.555C401.566 432.89 388.788 437.063 376.034 441.308C360.042 446.622 344.074 452.006 328.053 457.234C320.071 459.836 319.421 459.333 316.249 451.389C312.721 442.567 312.792 433.797 316.073 424.951C317.555 420.948 319.943 418.284 324.292 417.007C343.162 411.466 361.951 405.654 380.778 399.975ZM331.448 488.943C329.715 495.966 328.675 503.188 325.451 509.826C323.998 505.324 324.202 500.994 324.625 496.659C324.838 494.479 325.047 492.295 325.142 490.111C325.28 486.925 327.654 485.505 330.456 487.001C331.253 487.428 331.652 488.126 331.448 488.943ZM312.028 487.158C310.228 492.162 308.324 497.129 306.458 502.115C306.007 502.024 305.551 501.939 305.105 501.853C305.641 496.687 305.85 491.521 305.594 486.341C305.446 483.283 307.906 484.394 309.468 484.404C311.173 484.413 312.882 484.783 312.028 487.158ZM286.04 501.108C285.708 495.372 286.097 489.674 284.758 484.119C284.293 482.181 285.532 481.616 287.18 481.825C289.516 482.12 291.985 481.678 295.019 483.406C290.224 488.596 289.915 495.591 286.04 501.108ZM269.972 485.315C268.918 488.758 268.234 492.314 267.375 495.818C266.876 497.874 266.563 500.03 264.545 501.526C265.276 493.981 265.366 486.692 262.726 479.973C264.222 478.744 265.229 479.147 266.193 479.242C271.772 479.793 271.667 479.769 269.972 485.315ZM244.308 496.417C243.448 490.51 243.785 484.613 242.285 478.9C241.815 477.12 242.898 476.379 244.707 476.659C246.464 476.93 248.235 477.11 250.841 477.438C248.923 484.28 247.38 490.538 244.308 496.417ZM225.595 492.818C225.21 492.742 224.826 492.661 224.441 492.585C224.441 486.754 224.441 480.928 224.441 474.888C226.915 474.323 228.658 474.584 231.022 475.268C229.199 481.156 227.399 486.987 225.595 492.818ZM211.431 477.813C209.812 480.662 208.349 483.601 206.369 487.352C205.847 482.272 205.429 478.217 205.006 474.152C204.883 472.979 205.353 472.262 206.573 472.182C207.167 472.148 207.76 472.201 208.359 472.215C213.962 472.395 214.213 472.903 211.431 477.813ZM188.112 484.921C187.614 480.871 187.21 476.802 186.588 472.77C186.194 470.211 187.3 469.58 189.551 469.893C191.094 470.107 192.704 469.978 194.541 471.146C191.735 475.467 189.969 480.14 188.112 484.921ZM167.861 491.407C166.835 482.656 168.051 475.201 166.113 467.994C171.958 467.343 171.958 467.343 176.636 469.276C172.167 475.52 171.716 483.331 167.861 491.407ZM149.713 482.362C149.713 476.797 149.713 471.227 149.713 465.42C151.802 464.917 153.815 465.116 156.289 466.317C152.961 471.37 152.258 477.115 149.713 482.362ZM135.573 484.831C133.877 484.589 133.792 483.52 133.574 482.571C132.348 477.243 132.216 471.844 132.7 466.441C133.042 462.562 133.474 462.3 137.154 462.946C138.303 463.15 139.414 463.597 140.943 464.048C138.032 471.203 137.068 478.107 135.573 484.831ZM331.98 480.225C325.218 479.29 318.414 478.592 311.633 477.789C286.093 474.779 260.561 471.74 235.02 468.777C208.278 465.686 181.536 462.628 154.779 459.651C147.6 458.858 140.421 457.809 133.165 457.894C130.786 457.923 128.64 458.065 129.248 461.488C129.4 462.372 128.749 463.397 128.45 464.347C125.848 472.732 126.551 481.013 129.338 489.19C129.851 490.695 130.568 492.191 131.484 493.482C134.11 497.157 137.538 496.858 139.257 492.765C140.026 490.942 140.349 488.914 140.772 486.953C141.228 484.845 141.323 482.637 143.065 480.334C143.065 482.276 143.027 483.682 143.07 485.083C143.165 488.112 143.535 491.108 144.623 493.948C145.477 496.189 147.073 497.623 149.599 497.642C152.002 497.656 153.193 496.013 153.953 494.076C154.613 492.404 155.121 490.652 155.482 488.891C156.299 484.959 156.944 480.994 157.737 477.058C158.094 475.263 158.321 473.35 160.354 471.298C161.018 477.823 160.173 483.387 160.245 488.957C160.278 491.569 160.145 494.195 161.218 496.668C162.885 500.495 167.595 501.483 170.667 498.62C172.172 497.224 172.951 495.348 173.734 493.492C175.619 489.028 176.726 484.328 178.079 479.708C178.426 478.511 178.245 476.792 180.624 476.711C180.624 479.793 180.596 482.799 180.629 485.795C180.667 489.612 180.543 493.444 180.88 497.233C181.127 499.964 182.519 502.262 185.61 502.713C188.801 503.173 190.405 501.203 191.455 498.587C193.335 493.91 194.546 489.057 195.363 484.081C195.762 481.654 195.728 478.934 198.33 476.806C198.33 481.502 198.52 485.652 198.269 489.779C198.06 493.197 197.746 496.569 198.425 499.973C199.375 504.778 201.246 507.191 204.28 507.285C207.081 507.371 208.933 505.495 210.324 500.78C211.858 495.581 212.471 490.135 214.432 485.049C214.878 483.905 214.84 482.248 216.754 482.21C217.376 484.076 216.825 485.876 216.844 487.661C216.887 491.678 216.763 495.714 217.095 499.703C217.456 504.009 219.797 506.488 223.173 506.849C226.084 507.167 228.743 505.234 230.3 501.436C230.979 499.774 231.25 497.946 231.877 496.255C233.244 492.571 233.206 488.454 235.471 483.91C236.364 487.913 235.756 490.79 235.467 493.677C235.034 497.96 235.357 502.195 237.793 505.861C240.894 510.533 245.405 510.533 248.538 506.056C250.186 503.71 250.936 500.994 251.672 498.273C252.598 494.859 253.738 491.531 255.86 487.571C256.9 490.947 256.321 493.226 255.927 495.524C255.385 498.705 255.067 501.915 256.093 505.068C257.347 508.943 260.281 511.298 263.975 511.492C267.717 511.692 270.665 509.764 271.985 505.5C273.168 501.683 273.738 497.67 274.592 493.748C275.043 491.697 275.067 489.456 276.677 487.751C277.75 488.763 277.769 489.793 277.683 490.762C277.365 494.56 277.37 498.449 276.492 502.124C275.513 506.208 276.624 509.65 278.329 513.102C279.839 516.16 282.356 517.01 285.262 515.543C287.113 514.603 288.338 512.998 289.45 511.303C292.346 506.887 294.122 502.01 295.599 496.963C296.225 494.812 296.168 492.21 298.956 489.94C298.661 494.332 298.41 497.879 298.191 501.431C297.968 505.035 297.545 508.643 298.471 512.224C299.065 514.522 300.304 516.26 302.754 516.768C305.266 517.29 307.023 516.037 308.329 514.061C310.556 510.699 312.317 507.105 313.713 503.311C314.421 501.383 314.744 499.161 316.942 497.048C316.942 501.07 316.928 504.247 316.947 507.433C316.966 509.65 317.17 511.834 317.972 513.943C320.195 519.807 325.18 521.046 329.777 516.834C332.564 514.284 333.955 510.956 334.719 507.366C336.011 501.279 337.17 495.163 338.404 489.062C339.605 483.117 338.247 481.094 331.98 480.225Z" fill="#FFCE5F"/>
</svg>
