<svg width="56" height="56" viewBox="0 0 56 56" fill="none" xmlns="http://www.w3.org/2000/svg">
<path d="M50.8798 23.43H49.0003V23.3332H28.0003V32.6665H41.1872C39.2633 38.0997 34.0938 41.9998 28.0003 41.9998C20.2688 41.9998 14.0003 35.7313 14.0003 27.9998C14.0003 20.2683 20.2688 13.9998 28.0003 13.9998C31.5692 13.9998 34.816 15.3462 37.2882 17.5453L43.888 10.9455C39.7207 7.06167 34.1463 4.6665 28.0003 4.6665C15.1145 4.6665 4.66699 15.114 4.66699 27.9998C4.66699 40.8857 15.1145 51.3332 28.0003 51.3332C40.8862 51.3332 51.3337 40.8857 51.3337 27.9998C51.3337 26.4353 51.1727 24.9082 50.8798 23.43Z" fill="#FFC107"/>
<path d="M7.35742 17.1393L15.0236 22.7615C17.0979 17.6258 22.1216 13.9998 28.0004 13.9998C31.5693 13.9998 34.8161 15.3462 37.2883 17.5453L43.8881 10.9455C39.7208 7.06167 34.1464 4.6665 28.0004 4.6665C19.0381 4.6665 11.2658 9.72634 7.35742 17.1393Z" fill="#FF3D00"/>
<path d="M28 51.3332C34.027 51.3332 39.5034 49.0267 43.6439 45.2758L36.4222 39.1648C34.0008 41.0063 31.0421 42.0022 28 41.9998C21.931 41.9998 16.7779 38.13 14.8365 32.7295L7.22754 38.592C11.0892 46.1485 18.9315 51.3332 28 51.3332Z" fill="#4CAF50"/>
<path d="M50.8795 23.4303H49V23.3335H28V32.6668H41.1868C40.2666 35.2526 38.6089 37.5122 36.4187 39.1663L36.4222 39.164L43.6438 45.275C43.1328 45.7393 51.3333 39.6668 51.3333 28.0002C51.3333 26.4357 51.1723 24.9085 50.8795 23.4303Z" fill="#1976D2"/>
</svg>
